<svg width="8" height="32" viewBox="0 0 8 32" fill="none" xmlns="http://www.w3.org/2000/svg">
<path d="M1.044 17.064C0.78 17.064 0.552 16.98 0.36 16.812C0.192 16.62 0.108 16.392 0.108 16.128V0.900002C0.108 0.636001 0.192 0.42 0.36 0.252001C0.552 0.0840001 0.78 0 1.044 0H5.4C5.664 0 5.88 0.0840001 6.048 0.252001C6.24 0.42 6.336 0.636001 6.336 0.900002V16.128C6.336 16.392 6.24 16.62 6.048 16.812C5.88 16.98 5.664 17.064 5.4 17.064H1.044ZM0.9 25.2C0.66 25.2 0.444 25.116 0.252 24.948C0.084 24.756 0 24.54 0 24.3V19.656C0 19.392 0.084 19.176 0.252 19.008C0.444 18.816 0.66 18.72 0.9 18.72H5.544C5.784 18.72 5.988 18.816 6.156 19.008C6.348 19.176 6.444 19.392 6.444 19.656V24.3C6.444 24.54 6.36 24.756 6.192 24.948C6.024 25.116 5.808 25.2 5.544 25.2H0.9Z" fill="#F12929"/>
</svg>
