<svg width="480" height="36" viewBox="0 0 480 36" fill="none" xmlns="http://www.w3.org/2000/svg">
<rect x="82" width="230.891" height="35.7366" fill="#459E48"/>
<rect width="82" height="36" fill="#3419DB"/>
<rect x="312.892" width="114.808" height="35.7366" fill="#FFB800"/>
<rect x="427.699" width="52.3013" height="35.7366" fill="#DA1C1C"/>
<path d="M190.971 21C190.905 21 190.848 20.9767 190.801 20.93C190.755 20.8833 190.731 20.8267 190.731 20.76V19.48H187.561C187.495 19.48 187.438 19.4567 187.391 19.41C187.345 19.3633 187.321 19.3067 187.321 19.24V18.55C187.321 18.4433 187.358 18.3433 187.431 18.25L190.381 14.17C190.415 14.1167 190.465 14.0767 190.531 14.05C190.598 14.0167 190.671 14 190.751 14H191.851C191.925 14 191.981 14.0233 192.021 14.07C192.068 14.11 192.091 14.1667 192.091 14.24V18.29H192.991C193.065 18.29 193.121 18.3133 193.161 18.36C193.208 18.4 193.231 18.4567 193.231 18.53V19.24C193.231 19.3067 193.208 19.3633 193.161 19.41C193.121 19.4567 193.065 19.48 192.991 19.48H192.091V20.76C192.091 20.8267 192.068 20.8833 192.021 20.93C191.981 20.9767 191.925 21 191.851 21H190.971ZM188.731 18.33H190.761V15.46L188.731 18.33ZM196.835 21.1C196.255 21.1 195.755 21.01 195.335 20.83C194.921 20.6433 194.605 20.3867 194.385 20.06C194.165 19.7333 194.055 19.36 194.055 18.94C194.055 18.5667 194.145 18.2367 194.325 17.95C194.511 17.6567 194.761 17.4333 195.075 17.28C194.828 17.1267 194.638 16.93 194.505 16.69C194.371 16.4433 194.305 16.1633 194.305 15.85C194.305 15.2633 194.525 14.7933 194.965 14.44C195.411 14.08 196.035 13.9 196.835 13.9C197.635 13.9 198.255 14.0767 198.695 14.43C199.135 14.7833 199.355 15.2533 199.355 15.84C199.355 16.1533 199.288 16.4333 199.155 16.68C199.028 16.92 198.841 17.12 198.595 17.28C198.915 17.4333 199.165 17.6567 199.345 17.95C199.531 18.2367 199.625 18.57 199.625 18.95C199.625 19.37 199.515 19.7433 199.295 20.07C199.075 20.39 198.755 20.6433 198.335 20.83C197.915 21.01 197.415 21.1 196.835 21.1ZM196.835 16.84C197.181 16.8333 197.468 16.7467 197.695 16.58C197.928 16.4067 198.045 16.18 198.045 15.9C198.045 15.6133 197.931 15.3833 197.705 15.21C197.478 15.0367 197.188 14.95 196.835 14.95C196.488 14.95 196.201 15.0367 195.975 15.21C195.748 15.3833 195.635 15.6133 195.635 15.9C195.635 16.1867 195.748 16.4167 195.975 16.59C196.201 16.7567 196.488 16.84 196.835 16.84ZM196.835 20.05C197.228 20.05 197.555 19.95 197.815 19.75C198.081 19.55 198.215 19.2833 198.215 18.95C198.215 18.6167 198.081 18.35 197.815 18.15C197.555 17.95 197.228 17.85 196.835 17.85C196.441 17.85 196.115 17.95 195.855 18.15C195.595 18.3433 195.465 18.61 195.465 18.95C195.465 19.2833 195.595 19.55 195.855 19.75C196.115 19.95 196.441 20.05 196.835 20.05ZM202.047 17.52C201.607 17.52 201.254 17.4033 200.987 17.17C200.727 16.9367 200.584 16.62 200.557 16.22C200.55 16.1067 200.547 15.9567 200.547 15.77C200.547 15.57 200.55 15.41 200.557 15.29C200.584 14.8767 200.724 14.55 200.977 14.31C201.23 14.07 201.587 13.95 202.047 13.95C202.507 13.95 202.864 14.07 203.117 14.31C203.377 14.55 203.52 14.8767 203.547 15.29C203.56 15.53 203.567 15.69 203.567 15.77C203.567 15.8433 203.56 15.9933 203.547 16.22C203.52 16.62 203.374 16.9367 203.107 17.17C202.847 17.4033 202.494 17.52 202.047 17.52ZM201.237 21C201.17 21 201.117 20.9833 201.077 20.95C201.037 20.91 201.017 20.86 201.017 20.8C201.017 20.76 201.03 20.7233 201.057 20.69L205.987 14.19C206.04 14.1233 206.09 14.0767 206.137 14.05C206.184 14.0167 206.25 14 206.337 14H206.867C206.934 14 206.984 14.02 207.017 14.06C207.057 14.0933 207.077 14.14 207.077 14.2C207.077 14.24 207.064 14.2767 207.037 14.31L202.107 20.81C202.054 20.8767 202.004 20.9267 201.957 20.96C201.91 20.9867 201.847 21 201.767 21H201.237ZM202.047 16.77C202.24 16.77 202.38 16.7133 202.467 16.6C202.56 16.4867 202.617 16.3433 202.637 16.17C202.65 15.9433 202.657 15.8033 202.657 15.75C202.657 15.6767 202.65 15.54 202.637 15.34C202.624 15.1667 202.57 15.0233 202.477 14.91C202.384 14.79 202.24 14.73 202.047 14.73C201.86 14.73 201.72 14.79 201.627 14.91C201.534 15.0233 201.48 15.1667 201.467 15.34C201.46 15.44 201.457 15.5767 201.457 15.75C201.457 15.9167 201.46 16.0567 201.467 16.17C201.48 16.3367 201.53 16.48 201.617 16.6C201.71 16.7133 201.854 16.77 202.047 16.77ZM206.047 21.06C205.607 21.06 205.254 20.94 204.987 20.7C204.727 20.4533 204.584 20.1267 204.557 19.72C204.55 19.6067 204.547 19.4567 204.547 19.27C204.547 19.0767 204.55 18.92 204.557 18.8C204.584 18.3867 204.724 18.06 204.977 17.82C205.23 17.58 205.587 17.46 206.047 17.46C206.514 17.46 206.874 17.58 207.127 17.82C207.38 18.06 207.52 18.3867 207.547 18.8C207.56 19.04 207.567 19.1967 207.567 19.27C207.567 19.3433 207.56 19.4933 207.547 19.72C207.52 20.1267 207.374 20.4533 207.107 20.7C206.847 20.94 206.494 21.06 206.047 21.06ZM206.047 20.28C206.247 20.28 206.39 20.2233 206.477 20.11C206.57 19.99 206.624 19.8467 206.637 19.68C206.65 19.4533 206.657 19.31 206.657 19.25C206.657 19.1833 206.65 19.05 206.637 18.85C206.624 18.6767 206.57 18.5333 206.477 18.42C206.384 18.3 206.24 18.24 206.047 18.24C205.86 18.24 205.72 18.3 205.627 18.42C205.534 18.5333 205.48 18.6767 205.467 18.85C205.46 18.95 205.457 19.0833 205.457 19.25C205.457 19.4233 205.46 19.5667 205.467 19.68C205.48 19.8467 205.53 19.99 205.617 20.11C205.71 20.2233 205.854 20.28 206.047 20.28Z" fill="white"/>
<path d="M34.8003 21C34.7336 21 34.6769 20.9767 34.6303 20.93C34.5836 20.8833 34.5603 20.8267 34.5603 20.76V15.6L33.0503 16.76C33.0103 16.7933 32.9603 16.81 32.9003 16.81C32.8203 16.81 32.7569 16.7767 32.7103 16.71L32.2803 16.15C32.2469 16.1033 32.2303 16.0567 32.2303 16.01C32.2303 15.93 32.2669 15.8633 32.3403 15.81L34.5803 14.07C34.6536 14.0233 34.7369 14 34.8303 14H35.7303C35.7969 14 35.8536 14.0233 35.9003 14.07C35.9469 14.1167 35.9703 14.1733 35.9703 14.24V20.76C35.9703 20.8267 35.9469 20.8833 35.9003 20.93C35.8536 20.9767 35.7969 21 35.7303 21H34.8003ZM38.1189 21C38.0589 21 38.0089 20.98 37.9689 20.94C37.9289 20.8933 37.9089 20.84 37.9089 20.78C37.9089 20.76 37.9156 20.73 37.9289 20.69L40.3289 15.2H37.1989C37.1323 15.2 37.0756 15.1767 37.0289 15.13C36.9823 15.0833 36.9589 15.0267 36.9589 14.96V14.25C36.9589 14.1767 36.9789 14.1167 37.0189 14.07C37.0656 14.0233 37.1256 14 37.1989 14H41.5989C41.6723 14 41.7323 14.0233 41.7789 14.07C41.8256 14.1167 41.8489 14.1767 41.8489 14.25V14.88C41.8489 15.02 41.8156 15.1633 41.7489 15.31L39.3689 20.76C39.3289 20.8333 39.2856 20.8933 39.2389 20.94C39.1923 20.98 39.1289 21 39.0489 21H38.1189ZM44.0382 17.52C43.5982 17.52 43.2448 17.4033 42.9782 17.17C42.7182 16.9367 42.5748 16.62 42.5482 16.22C42.5415 16.1067 42.5382 15.9567 42.5382 15.77C42.5382 15.57 42.5415 15.41 42.5482 15.29C42.5748 14.8767 42.7148 14.55 42.9682 14.31C43.2215 14.07 43.5782 13.95 44.0382 13.95C44.4982 13.95 44.8548 14.07 45.1082 14.31C45.3682 14.55 45.5115 14.8767 45.5382 15.29C45.5515 15.53 45.5582 15.69 45.5582 15.77C45.5582 15.8433 45.5515 15.9933 45.5382 16.22C45.5115 16.62 45.3648 16.9367 45.0982 17.17C44.8382 17.4033 44.4848 17.52 44.0382 17.52ZM43.2282 21C43.1615 21 43.1082 20.9833 43.0682 20.95C43.0282 20.91 43.0082 20.86 43.0082 20.8C43.0082 20.76 43.0215 20.7233 43.0482 20.69L47.9782 14.19C48.0315 14.1233 48.0815 14.0767 48.1282 14.05C48.1748 14.0167 48.2415 14 48.3282 14H48.8582C48.9248 14 48.9748 14.02 49.0082 14.06C49.0482 14.0933 49.0682 14.14 49.0682 14.2C49.0682 14.24 49.0548 14.2767 49.0282 14.31L44.0982 20.81C44.0448 20.8767 43.9948 20.9267 43.9482 20.96C43.9015 20.9867 43.8382 21 43.7582 21H43.2282ZM44.0382 16.77C44.2315 16.77 44.3715 16.7133 44.4582 16.6C44.5515 16.4867 44.6082 16.3433 44.6282 16.17C44.6415 15.9433 44.6482 15.8033 44.6482 15.75C44.6482 15.6767 44.6415 15.54 44.6282 15.34C44.6148 15.1667 44.5615 15.0233 44.4682 14.91C44.3748 14.79 44.2315 14.73 44.0382 14.73C43.8515 14.73 43.7115 14.79 43.6182 14.91C43.5248 15.0233 43.4715 15.1667 43.4582 15.34C43.4515 15.44 43.4482 15.5767 43.4482 15.75C43.4482 15.9167 43.4515 16.0567 43.4582 16.17C43.4715 16.3367 43.5215 16.48 43.6082 16.6C43.7015 16.7133 43.8448 16.77 44.0382 16.77ZM48.0382 21.06C47.5982 21.06 47.2448 20.94 46.9782 20.7C46.7182 20.4533 46.5748 20.1267 46.5482 19.72C46.5415 19.6067 46.5382 19.4567 46.5382 19.27C46.5382 19.0767 46.5415 18.92 46.5482 18.8C46.5748 18.3867 46.7148 18.06 46.9682 17.82C47.2215 17.58 47.5782 17.46 48.0382 17.46C48.5048 17.46 48.8648 17.58 49.1182 17.82C49.3715 18.06 49.5115 18.3867 49.5382 18.8C49.5515 19.04 49.5582 19.1967 49.5582 19.27C49.5582 19.3433 49.5515 19.4933 49.5382 19.72C49.5115 20.1267 49.3648 20.4533 49.0982 20.7C48.8382 20.94 48.4848 21.06 48.0382 21.06ZM48.0382 20.28C48.2382 20.28 48.3815 20.2233 48.4682 20.11C48.5615 19.99 48.6148 19.8467 48.6282 19.68C48.6415 19.4533 48.6482 19.31 48.6482 19.25C48.6482 19.1833 48.6415 19.05 48.6282 18.85C48.6148 18.6767 48.5615 18.5333 48.4682 18.42C48.3748 18.3 48.2315 18.24 48.0382 18.24C47.8515 18.24 47.7115 18.3 47.6182 18.42C47.5248 18.5333 47.4715 18.6767 47.4582 18.85C47.4515 18.95 47.4482 19.0833 47.4482 19.25C47.4482 19.4233 47.4515 19.5667 47.4582 19.68C47.4715 19.8467 47.5215 19.99 47.6082 20.11C47.7015 20.2233 47.8448 20.28 48.0382 20.28Z" fill="white"/>
<path d="M360.273 21C360.206 21 360.15 20.9767 360.103 20.93C360.056 20.8833 360.033 20.8267 360.033 20.76V20.24C360.033 20.0533 360.116 19.8967 360.283 19.77L361.843 18.22C362.316 17.8467 362.68 17.5433 362.933 17.31C363.193 17.07 363.386 16.85 363.513 16.65C363.64 16.45 363.703 16.2533 363.703 16.06C363.703 15.7467 363.62 15.5 363.453 15.32C363.286 15.14 363.033 15.05 362.693 15.05C362.36 15.05 362.096 15.15 361.903 15.35C361.716 15.5433 361.6 15.7967 361.553 16.11C361.533 16.19 361.493 16.25 361.433 16.29C361.38 16.3233 361.32 16.34 361.253 16.34H360.353C360.293 16.34 360.243 16.32 360.203 16.28C360.163 16.24 360.143 16.19 360.143 16.13C360.156 15.7367 360.263 15.37 360.463 15.03C360.67 14.6833 360.963 14.4067 361.343 14.2C361.723 13.9867 362.17 13.88 362.683 13.88C363.216 13.88 363.67 13.9733 364.043 14.16C364.416 14.34 364.696 14.59 364.883 14.91C365.07 15.23 365.163 15.5933 365.163 16C365.163 16.4467 365.036 16.8533 364.783 17.22C364.536 17.58 364.15 17.9667 363.623 18.38L362.233 19.79H365.063C365.136 19.79 365.196 19.8133 365.243 19.86C365.29 19.9067 365.313 19.9667 365.313 20.04V20.76C365.313 20.8333 365.29 20.8933 365.243 20.94C365.196 20.98 365.136 21 365.063 21H360.273ZM368.904 21.1C368.311 21.1 367.808 21.0067 367.394 20.82C366.988 20.6333 366.681 20.4 366.474 20.12C366.274 19.8333 366.168 19.54 366.154 19.24C366.154 19.18 366.174 19.13 366.214 19.09C366.254 19.05 366.304 19.03 366.364 19.03H367.284C367.431 19.03 367.531 19.0967 367.584 19.23C367.731 19.7033 368.171 19.94 368.904 19.94C369.311 19.94 369.628 19.8467 369.854 19.66C370.088 19.4733 370.204 19.2067 370.204 18.86C370.204 18.5133 370.098 18.2633 369.884 18.11C369.678 17.95 369.371 17.87 368.964 17.87H367.934C367.868 17.87 367.811 17.8467 367.764 17.8C367.718 17.7533 367.694 17.6967 367.694 17.63V17.2C367.694 17.0733 367.738 16.9733 367.824 16.9L369.604 15.16H366.754C366.681 15.16 366.621 15.1367 366.574 15.09C366.528 15.0433 366.504 14.9867 366.504 14.92V14.25C366.504 14.1767 366.528 14.1167 366.574 14.07C366.621 14.0233 366.681 14 366.754 14H371.054C371.128 14 371.188 14.0233 371.234 14.07C371.281 14.1167 371.304 14.1767 371.304 14.25V14.86C371.304 14.9733 371.261 15.0667 371.174 15.14L369.454 16.91L369.574 16.92C370.214 16.9733 370.721 17.1667 371.094 17.5C371.474 17.8333 371.664 18.31 371.664 18.93C371.664 19.37 371.544 19.7533 371.304 20.08C371.071 20.4067 370.744 20.66 370.324 20.84C369.911 21.0133 369.438 21.1 368.904 21.1ZM374.013 17.52C373.573 17.52 373.22 17.4033 372.953 17.17C372.693 16.9367 372.55 16.62 372.523 16.22C372.516 16.1067 372.513 15.9567 372.513 15.77C372.513 15.57 372.516 15.41 372.523 15.29C372.55 14.8767 372.69 14.55 372.943 14.31C373.196 14.07 373.553 13.95 374.013 13.95C374.473 13.95 374.83 14.07 375.083 14.31C375.343 14.55 375.486 14.8767 375.513 15.29C375.526 15.53 375.533 15.69 375.533 15.77C375.533 15.8433 375.526 15.9933 375.513 16.22C375.486 16.62 375.34 16.9367 375.073 17.17C374.813 17.4033 374.46 17.52 374.013 17.52ZM373.203 21C373.136 21 373.083 20.9833 373.043 20.95C373.003 20.91 372.983 20.86 372.983 20.8C372.983 20.76 372.996 20.7233 373.023 20.69L377.953 14.19C378.006 14.1233 378.056 14.0767 378.103 14.05C378.15 14.0167 378.216 14 378.303 14H378.833C378.9 14 378.95 14.02 378.983 14.06C379.023 14.0933 379.043 14.14 379.043 14.2C379.043 14.24 379.03 14.2767 379.003 14.31L374.073 20.81C374.02 20.8767 373.97 20.9267 373.923 20.96C373.876 20.9867 373.813 21 373.733 21H373.203ZM374.013 16.77C374.206 16.77 374.346 16.7133 374.433 16.6C374.526 16.4867 374.583 16.3433 374.603 16.17C374.616 15.9433 374.623 15.8033 374.623 15.75C374.623 15.6767 374.616 15.54 374.603 15.34C374.59 15.1667 374.536 15.0233 374.443 14.91C374.35 14.79 374.206 14.73 374.013 14.73C373.826 14.73 373.686 14.79 373.593 14.91C373.5 15.0233 373.446 15.1667 373.433 15.34C373.426 15.44 373.423 15.5767 373.423 15.75C373.423 15.9167 373.426 16.0567 373.433 16.17C373.446 16.3367 373.496 16.48 373.583 16.6C373.676 16.7133 373.82 16.77 374.013 16.77ZM378.013 21.06C377.573 21.06 377.22 20.94 376.953 20.7C376.693 20.4533 376.55 20.1267 376.523 19.72C376.516 19.6067 376.513 19.4567 376.513 19.27C376.513 19.0767 376.516 18.92 376.523 18.8C376.55 18.3867 376.69 18.06 376.943 17.82C377.196 17.58 377.553 17.46 378.013 17.46C378.48 17.46 378.84 17.58 379.093 17.82C379.346 18.06 379.486 18.3867 379.513 18.8C379.526 19.04 379.533 19.1967 379.533 19.27C379.533 19.3433 379.526 19.4933 379.513 19.72C379.486 20.1267 379.34 20.4533 379.073 20.7C378.813 20.94 378.46 21.06 378.013 21.06ZM378.013 20.28C378.213 20.28 378.356 20.2233 378.443 20.11C378.536 19.99 378.59 19.8467 378.603 19.68C378.616 19.4533 378.623 19.31 378.623 19.25C378.623 19.1833 378.616 19.05 378.603 18.85C378.59 18.6767 378.536 18.5333 378.443 18.42C378.35 18.3 378.206 18.24 378.013 18.24C377.826 18.24 377.686 18.3 377.593 18.42C377.5 18.5333 377.446 18.6767 377.433 18.85C377.426 18.95 377.423 19.0833 377.423 19.25C377.423 19.4233 377.426 19.5667 377.433 19.68C377.446 19.8467 377.496 19.99 377.583 20.11C377.676 20.2233 377.82 20.28 378.013 20.28Z" fill="white"/>
<path d="M446.773 21C446.706 21 446.649 20.9767 446.603 20.93C446.556 20.8833 446.533 20.8267 446.533 20.76V15.6L445.023 16.76C444.983 16.7933 444.933 16.81 444.873 16.81C444.793 16.81 444.729 16.7767 444.683 16.71L444.253 16.15C444.219 16.1033 444.203 16.0567 444.203 16.01C444.203 15.93 444.239 15.8633 444.313 15.81L446.553 14.07C446.626 14.0233 446.709 14 446.803 14H447.703C447.769 14 447.826 14.0233 447.873 14.07C447.919 14.1167 447.943 14.1733 447.943 14.24V20.76C447.943 20.8267 447.919 20.8833 447.873 20.93C447.826 20.9767 447.769 21 447.703 21H446.773ZM451.931 21.1C451.038 21.1 450.371 20.8533 449.931 20.36C449.498 19.8667 449.261 19.22 449.221 18.42C449.215 18.24 449.211 17.9333 449.211 17.5C449.211 17.06 449.215 16.7467 449.221 16.56C449.255 15.7733 449.495 15.1333 449.941 14.64C450.388 14.1467 451.051 13.9 451.931 13.9C452.811 13.9 453.475 14.1467 453.921 14.64C454.368 15.1333 454.608 15.7733 454.641 16.56C454.655 16.9333 454.661 17.2467 454.661 17.5C454.661 17.7533 454.655 18.06 454.641 18.42C454.601 19.22 454.361 19.8667 453.921 20.36C453.488 20.8533 452.825 21.1 451.931 21.1ZM451.931 19.93C452.345 19.93 452.655 19.7967 452.861 19.53C453.068 19.2567 453.178 18.87 453.191 18.37C453.198 18.1767 453.201 17.88 453.201 17.48C453.201 17.08 453.198 16.79 453.191 16.61C453.178 16.1233 453.068 15.7433 452.861 15.47C452.655 15.1967 452.345 15.0567 451.931 15.05C451.518 15.0567 451.208 15.1967 451.001 15.47C450.795 15.7433 450.685 16.1233 450.671 16.61C450.665 16.79 450.661 17.08 450.661 17.48C450.661 17.88 450.665 18.1767 450.671 18.37C450.685 18.87 450.795 19.2567 451.001 19.53C451.208 19.7967 451.518 19.93 451.931 19.93ZM457.153 17.52C456.713 17.52 456.36 17.4033 456.093 17.17C455.833 16.9367 455.69 16.62 455.663 16.22C455.656 16.1067 455.653 15.9567 455.653 15.77C455.653 15.57 455.656 15.41 455.663 15.29C455.69 14.8767 455.83 14.55 456.083 14.31C456.336 14.07 456.693 13.95 457.153 13.95C457.613 13.95 457.97 14.07 458.223 14.31C458.483 14.55 458.626 14.8767 458.653 15.29C458.666 15.53 458.673 15.69 458.673 15.77C458.673 15.8433 458.666 15.9933 458.653 16.22C458.626 16.62 458.48 16.9367 458.213 17.17C457.953 17.4033 457.6 17.52 457.153 17.52ZM456.343 21C456.276 21 456.223 20.9833 456.183 20.95C456.143 20.91 456.123 20.86 456.123 20.8C456.123 20.76 456.136 20.7233 456.163 20.69L461.093 14.19C461.146 14.1233 461.196 14.0767 461.243 14.05C461.29 14.0167 461.356 14 461.443 14H461.973C462.04 14 462.09 14.02 462.123 14.06C462.163 14.0933 462.183 14.14 462.183 14.2C462.183 14.24 462.17 14.2767 462.143 14.31L457.213 20.81C457.16 20.8767 457.11 20.9267 457.063 20.96C457.016 20.9867 456.953 21 456.873 21H456.343ZM457.153 16.77C457.346 16.77 457.486 16.7133 457.573 16.6C457.666 16.4867 457.723 16.3433 457.743 16.17C457.756 15.9433 457.763 15.8033 457.763 15.75C457.763 15.6767 457.756 15.54 457.743 15.34C457.73 15.1667 457.676 15.0233 457.583 14.91C457.49 14.79 457.346 14.73 457.153 14.73C456.966 14.73 456.826 14.79 456.733 14.91C456.64 15.0233 456.586 15.1667 456.573 15.34C456.566 15.44 456.563 15.5767 456.563 15.75C456.563 15.9167 456.566 16.0567 456.573 16.17C456.586 16.3367 456.636 16.48 456.723 16.6C456.816 16.7133 456.96 16.77 457.153 16.77ZM461.153 21.06C460.713 21.06 460.36 20.94 460.093 20.7C459.833 20.4533 459.69 20.1267 459.663 19.72C459.656 19.6067 459.653 19.4567 459.653 19.27C459.653 19.0767 459.656 18.92 459.663 18.8C459.69 18.3867 459.83 18.06 460.083 17.82C460.336 17.58 460.693 17.46 461.153 17.46C461.62 17.46 461.98 17.58 462.233 17.82C462.486 18.06 462.626 18.3867 462.653 18.8C462.666 19.04 462.673 19.1967 462.673 19.27C462.673 19.3433 462.666 19.4933 462.653 19.72C462.626 20.1267 462.48 20.4533 462.213 20.7C461.953 20.94 461.6 21.06 461.153 21.06ZM461.153 20.28C461.353 20.28 461.496 20.2233 461.583 20.11C461.676 19.99 461.73 19.8467 461.743 19.68C461.756 19.4533 461.763 19.31 461.763 19.25C461.763 19.1833 461.756 19.05 461.743 18.85C461.73 18.6767 461.676 18.5333 461.583 18.42C461.49 18.3 461.346 18.24 461.153 18.24C460.966 18.24 460.826 18.3 460.733 18.42C460.64 18.5333 460.586 18.6767 460.573 18.85C460.566 18.95 460.563 19.0833 460.563 19.25C460.563 19.4233 460.566 19.5667 460.573 19.68C460.586 19.8467 460.636 19.99 460.723 20.11C460.816 20.2233 460.96 20.28 461.153 20.28Z" fill="white"/>
</svg>
