<svg width="480" height="36" viewBox="0 0 480 36" fill="none" xmlns="http://www.w3.org/2000/svg">
<rect x="83" width="282.359" height="36" fill="#459E48"/>
<rect width="83" height="36" fill="#3419DB"/>
<rect x="365.359" width="114.641" height="35.7366" fill="#FFB800"/>
<path d="M212.827 21.11C212.274 21.11 211.794 21.0167 211.387 20.83C210.987 20.6433 210.684 20.3967 210.477 20.09C210.27 19.7833 210.16 19.4533 210.147 19.1V19.08C210.147 19.0267 210.167 18.9833 210.207 18.95C210.254 18.91 210.304 18.89 210.357 18.89H211.307C211.46 18.89 211.557 18.9567 211.597 19.09C211.69 19.3833 211.844 19.6 212.057 19.74C212.277 19.88 212.534 19.95 212.827 19.95C213.2 19.95 213.507 19.8367 213.747 19.61C213.994 19.3833 214.117 19.07 214.117 18.67C214.117 18.31 213.994 18.02 213.747 17.8C213.507 17.5733 213.2 17.46 212.827 17.46C212.627 17.46 212.464 17.4867 212.337 17.54C212.21 17.5933 212.087 17.6667 211.967 17.76C211.954 17.7667 211.924 17.7867 211.877 17.82C211.83 17.8533 211.787 17.8767 211.747 17.89C211.714 17.9033 211.677 17.91 211.637 17.91H210.697C210.637 17.91 210.584 17.89 210.537 17.85C210.497 17.8033 210.477 17.75 210.477 17.69L210.817 14.28C210.824 14.1933 210.854 14.1267 210.907 14.08C210.967 14.0267 211.037 14 211.117 14H214.877C214.95 14 215.007 14.0233 215.047 14.07C215.094 14.11 215.117 14.1667 215.117 14.24V14.92C215.117 14.9867 215.094 15.0433 215.047 15.09C215.007 15.1367 214.95 15.16 214.877 15.16H211.987L211.827 16.78C211.98 16.68 212.157 16.6 212.357 16.54C212.557 16.4733 212.817 16.44 213.137 16.44C213.57 16.44 213.97 16.5333 214.337 16.72C214.71 16.9 215.007 17.1633 215.227 17.51C215.454 17.85 215.567 18.2467 215.567 18.7C215.567 19.1867 215.454 19.6133 215.227 19.98C215 20.34 214.68 20.62 214.267 20.82C213.854 21.0133 213.374 21.11 212.827 21.11ZM219.248 21.1C218.668 21.1 218.168 21.01 217.748 20.83C217.334 20.6433 217.018 20.3867 216.798 20.06C216.578 19.7333 216.468 19.36 216.468 18.94C216.468 18.5667 216.558 18.2367 216.738 17.95C216.924 17.6567 217.174 17.4333 217.488 17.28C217.241 17.1267 217.051 16.93 216.918 16.69C216.784 16.4433 216.718 16.1633 216.718 15.85C216.718 15.2633 216.938 14.7933 217.378 14.44C217.824 14.08 218.448 13.9 219.248 13.9C220.048 13.9 220.668 14.0767 221.108 14.43C221.548 14.7833 221.768 15.2533 221.768 15.84C221.768 16.1533 221.701 16.4333 221.568 16.68C221.441 16.92 221.254 17.12 221.008 17.28C221.328 17.4333 221.578 17.6567 221.758 17.95C221.944 18.2367 222.038 18.57 222.038 18.95C222.038 19.37 221.928 19.7433 221.708 20.07C221.488 20.39 221.168 20.6433 220.748 20.83C220.328 21.01 219.828 21.1 219.248 21.1ZM219.248 16.84C219.594 16.8333 219.881 16.7467 220.108 16.58C220.341 16.4067 220.458 16.18 220.458 15.9C220.458 15.6133 220.344 15.3833 220.118 15.21C219.891 15.0367 219.601 14.95 219.248 14.95C218.901 14.95 218.614 15.0367 218.388 15.21C218.161 15.3833 218.048 15.6133 218.048 15.9C218.048 16.1867 218.161 16.4167 218.388 16.59C218.614 16.7567 218.901 16.84 219.248 16.84ZM219.248 20.05C219.641 20.05 219.968 19.95 220.228 19.75C220.494 19.55 220.628 19.2833 220.628 18.95C220.628 18.6167 220.494 18.35 220.228 18.15C219.968 17.95 219.641 17.85 219.248 17.85C218.854 17.85 218.528 17.95 218.268 18.15C218.008 18.3433 217.878 18.61 217.878 18.95C217.878 19.2833 218.008 19.55 218.268 19.75C218.528 19.95 218.854 20.05 219.248 20.05ZM224.46 17.52C224.02 17.52 223.667 17.4033 223.4 17.17C223.14 16.9367 222.997 16.62 222.97 16.22C222.963 16.1067 222.96 15.9567 222.96 15.77C222.96 15.57 222.963 15.41 222.97 15.29C222.997 14.8767 223.137 14.55 223.39 14.31C223.643 14.07 224 13.95 224.46 13.95C224.92 13.95 225.277 14.07 225.53 14.31C225.79 14.55 225.933 14.8767 225.96 15.29C225.973 15.53 225.98 15.69 225.98 15.77C225.98 15.8433 225.973 15.9933 225.96 16.22C225.933 16.62 225.787 16.9367 225.52 17.17C225.26 17.4033 224.907 17.52 224.46 17.52ZM223.65 21C223.583 21 223.53 20.9833 223.49 20.95C223.45 20.91 223.43 20.86 223.43 20.8C223.43 20.76 223.443 20.7233 223.47 20.69L228.4 14.19C228.453 14.1233 228.503 14.0767 228.55 14.05C228.597 14.0167 228.663 14 228.75 14H229.28C229.347 14 229.397 14.02 229.43 14.06C229.47 14.0933 229.49 14.14 229.49 14.2C229.49 14.24 229.477 14.2767 229.45 14.31L224.52 20.81C224.467 20.8767 224.417 20.9267 224.37 20.96C224.323 20.9867 224.26 21 224.18 21H223.65ZM224.46 16.77C224.653 16.77 224.793 16.7133 224.88 16.6C224.973 16.4867 225.03 16.3433 225.05 16.17C225.063 15.9433 225.07 15.8033 225.07 15.75C225.07 15.6767 225.063 15.54 225.05 15.34C225.037 15.1667 224.983 15.0233 224.89 14.91C224.797 14.79 224.653 14.73 224.46 14.73C224.273 14.73 224.133 14.79 224.04 14.91C223.947 15.0233 223.893 15.1667 223.88 15.34C223.873 15.44 223.87 15.5767 223.87 15.75C223.87 15.9167 223.873 16.0567 223.88 16.17C223.893 16.3367 223.943 16.48 224.03 16.6C224.123 16.7133 224.267 16.77 224.46 16.77ZM228.46 21.06C228.02 21.06 227.667 20.94 227.4 20.7C227.14 20.4533 226.997 20.1267 226.97 19.72C226.963 19.6067 226.96 19.4567 226.96 19.27C226.96 19.0767 226.963 18.92 226.97 18.8C226.997 18.3867 227.137 18.06 227.39 17.82C227.643 17.58 228 17.46 228.46 17.46C228.927 17.46 229.287 17.58 229.54 17.82C229.793 18.06 229.933 18.3867 229.96 18.8C229.973 19.04 229.98 19.1967 229.98 19.27C229.98 19.3433 229.973 19.4933 229.96 19.72C229.933 20.1267 229.787 20.4533 229.52 20.7C229.26 20.94 228.907 21.06 228.46 21.06ZM228.46 20.28C228.66 20.28 228.803 20.2233 228.89 20.11C228.983 19.99 229.037 19.8467 229.05 19.68C229.063 19.4533 229.07 19.31 229.07 19.25C229.07 19.1833 229.063 19.05 229.05 18.85C229.037 18.6767 228.983 18.5333 228.89 18.42C228.797 18.3 228.653 18.24 228.46 18.24C228.273 18.24 228.133 18.3 228.04 18.42C227.947 18.5333 227.893 18.6767 227.88 18.85C227.873 18.95 227.87 19.0833 227.87 19.25C227.87 19.4233 227.873 19.5667 227.88 19.68C227.893 19.8467 227.943 19.99 228.03 20.11C228.123 20.2233 228.267 20.28 228.46 20.28ZM232.312 17.52C231.872 17.52 231.518 17.4033 231.252 17.17C230.992 16.9367 230.848 16.62 230.822 16.22C230.815 16.1067 230.812 15.9567 230.812 15.77C230.812 15.57 230.815 15.41 230.822 15.29C230.848 14.8767 230.988 14.55 231.242 14.31C231.495 14.07 231.852 13.95 232.312 13.95C232.772 13.95 233.128 14.07 233.382 14.31C233.642 14.55 233.785 14.8767 233.812 15.29C233.825 15.53 233.832 15.69 233.832 15.77C233.832 15.8433 233.825 15.9933 233.812 16.22C233.785 16.62 233.638 16.9367 233.372 17.17C233.112 17.4033 232.758 17.52 232.312 17.52ZM231.502 21C231.435 21 231.382 20.9833 231.342 20.95C231.302 20.91 231.282 20.86 231.282 20.8C231.282 20.76 231.295 20.7233 231.322 20.69L236.252 14.19C236.305 14.1233 236.355 14.0767 236.402 14.05C236.448 14.0167 236.515 14 236.602 14H237.132C237.198 14 237.248 14.02 237.282 14.06C237.322 14.0933 237.342 14.14 237.342 14.2C237.342 14.24 237.328 14.2767 237.302 14.31L232.372 20.81C232.318 20.8767 232.268 20.9267 232.222 20.96C232.175 20.9867 232.112 21 232.032 21H231.502ZM232.312 16.77C232.505 16.77 232.645 16.7133 232.732 16.6C232.825 16.4867 232.882 16.3433 232.902 16.17C232.915 15.9433 232.922 15.8033 232.922 15.75C232.922 15.6767 232.915 15.54 232.902 15.34C232.888 15.1667 232.835 15.0233 232.742 14.91C232.648 14.79 232.505 14.73 232.312 14.73C232.125 14.73 231.985 14.79 231.892 14.91C231.798 15.0233 231.745 15.1667 231.732 15.34C231.725 15.44 231.722 15.5767 231.722 15.75C231.722 15.9167 231.725 16.0567 231.732 16.17C231.745 16.3367 231.795 16.48 231.882 16.6C231.975 16.7133 232.118 16.77 232.312 16.77ZM236.312 21.06C235.872 21.06 235.518 20.94 235.252 20.7C234.992 20.4533 234.848 20.1267 234.822 19.72C234.815 19.6067 234.812 19.4567 234.812 19.27C234.812 19.0767 234.815 18.92 234.822 18.8C234.848 18.3867 234.988 18.06 235.242 17.82C235.495 17.58 235.852 17.46 236.312 17.46C236.778 17.46 237.138 17.58 237.392 17.82C237.645 18.06 237.785 18.3867 237.812 18.8C237.825 19.04 237.832 19.1967 237.832 19.27C237.832 19.3433 237.825 19.4933 237.812 19.72C237.785 20.1267 237.638 20.4533 237.372 20.7C237.112 20.94 236.758 21.06 236.312 21.06ZM236.312 20.28C236.512 20.28 236.655 20.2233 236.742 20.11C236.835 19.99 236.888 19.8467 236.902 19.68C236.915 19.4533 236.922 19.31 236.922 19.25C236.922 19.1833 236.915 19.05 236.902 18.85C236.888 18.6767 236.835 18.5333 236.742 18.42C236.648 18.3 236.505 18.24 236.312 18.24C236.125 18.24 235.985 18.3 235.892 18.42C235.798 18.5333 235.745 18.6767 235.732 18.85C235.725 18.95 235.722 19.0833 235.722 19.25C235.722 19.4233 235.725 19.5667 235.732 19.68C235.745 19.8467 235.795 19.99 235.882 20.11C235.975 20.2233 236.118 20.28 236.312 20.28Z" fill="white"/>
<path d="M36.3003 21C36.2336 21 36.1769 20.9767 36.1303 20.93C36.0836 20.8833 36.0603 20.8267 36.0603 20.76V15.6L34.5503 16.76C34.5103 16.7933 34.4603 16.81 34.4003 16.81C34.3203 16.81 34.2569 16.7767 34.2103 16.71L33.7803 16.15C33.7469 16.1033 33.7303 16.0567 33.7303 16.01C33.7303 15.93 33.7669 15.8633 33.8403 15.81L36.0803 14.07C36.1536 14.0233 36.2369 14 36.3303 14H37.2303C37.2969 14 37.3536 14.0233 37.4003 14.07C37.4469 14.1167 37.4703 14.1733 37.4703 14.24V20.76C37.4703 20.8267 37.4469 20.8833 37.4003 20.93C37.3536 20.9767 37.2969 21 37.2303 21H36.3003ZM39.6189 21C39.5589 21 39.5089 20.98 39.4689 20.94C39.4289 20.8933 39.4089 20.84 39.4089 20.78C39.4089 20.76 39.4156 20.73 39.4289 20.69L41.8289 15.2H38.6989C38.6323 15.2 38.5756 15.1767 38.5289 15.13C38.4823 15.0833 38.4589 15.0267 38.4589 14.96V14.25C38.4589 14.1767 38.4789 14.1167 38.5189 14.07C38.5656 14.0233 38.6256 14 38.6989 14H43.0989C43.1723 14 43.2323 14.0233 43.2789 14.07C43.3256 14.1167 43.3489 14.1767 43.3489 14.25V14.88C43.3489 15.02 43.3156 15.1633 43.2489 15.31L40.8689 20.76C40.8289 20.8333 40.7856 20.8933 40.7389 20.94C40.6923 20.98 40.6289 21 40.5489 21H39.6189ZM45.5382 17.52C45.0982 17.52 44.7448 17.4033 44.4782 17.17C44.2182 16.9367 44.0748 16.62 44.0482 16.22C44.0415 16.1067 44.0382 15.9567 44.0382 15.77C44.0382 15.57 44.0415 15.41 44.0482 15.29C44.0748 14.8767 44.2148 14.55 44.4682 14.31C44.7215 14.07 45.0782 13.95 45.5382 13.95C45.9982 13.95 46.3548 14.07 46.6082 14.31C46.8682 14.55 47.0115 14.8767 47.0382 15.29C47.0515 15.53 47.0582 15.69 47.0582 15.77C47.0582 15.8433 47.0515 15.9933 47.0382 16.22C47.0115 16.62 46.8648 16.9367 46.5982 17.17C46.3382 17.4033 45.9848 17.52 45.5382 17.52ZM44.7282 21C44.6615 21 44.6082 20.9833 44.5682 20.95C44.5282 20.91 44.5082 20.86 44.5082 20.8C44.5082 20.76 44.5215 20.7233 44.5482 20.69L49.4782 14.19C49.5315 14.1233 49.5815 14.0767 49.6282 14.05C49.6748 14.0167 49.7415 14 49.8282 14H50.3582C50.4248 14 50.4748 14.02 50.5082 14.06C50.5482 14.0933 50.5682 14.14 50.5682 14.2C50.5682 14.24 50.5548 14.2767 50.5282 14.31L45.5982 20.81C45.5448 20.8767 45.4948 20.9267 45.4482 20.96C45.4015 20.9867 45.3382 21 45.2582 21H44.7282ZM45.5382 16.77C45.7315 16.77 45.8715 16.7133 45.9582 16.6C46.0515 16.4867 46.1082 16.3433 46.1282 16.17C46.1415 15.9433 46.1482 15.8033 46.1482 15.75C46.1482 15.6767 46.1415 15.54 46.1282 15.34C46.1148 15.1667 46.0615 15.0233 45.9682 14.91C45.8748 14.79 45.7315 14.73 45.5382 14.73C45.3515 14.73 45.2115 14.79 45.1182 14.91C45.0248 15.0233 44.9715 15.1667 44.9582 15.34C44.9515 15.44 44.9482 15.5767 44.9482 15.75C44.9482 15.9167 44.9515 16.0567 44.9582 16.17C44.9715 16.3367 45.0215 16.48 45.1082 16.6C45.2015 16.7133 45.3448 16.77 45.5382 16.77ZM49.5382 21.06C49.0982 21.06 48.7448 20.94 48.4782 20.7C48.2182 20.4533 48.0748 20.1267 48.0482 19.72C48.0415 19.6067 48.0382 19.4567 48.0382 19.27C48.0382 19.0767 48.0415 18.92 48.0482 18.8C48.0748 18.3867 48.2148 18.06 48.4682 17.82C48.7215 17.58 49.0782 17.46 49.5382 17.46C50.0048 17.46 50.3648 17.58 50.6182 17.82C50.8715 18.06 51.0115 18.3867 51.0382 18.8C51.0515 19.04 51.0582 19.1967 51.0582 19.27C51.0582 19.3433 51.0515 19.4933 51.0382 19.72C51.0115 20.1267 50.8648 20.4533 50.5982 20.7C50.3382 20.94 49.9848 21.06 49.5382 21.06ZM49.5382 20.28C49.7382 20.28 49.8815 20.2233 49.9682 20.11C50.0615 19.99 50.1148 19.8467 50.1282 19.68C50.1415 19.4533 50.1482 19.31 50.1482 19.25C50.1482 19.1833 50.1415 19.05 50.1282 18.85C50.1148 18.6767 50.0615 18.5333 49.9682 18.42C49.8748 18.3 49.7315 18.24 49.5382 18.24C49.3515 18.24 49.2115 18.3 49.1182 18.42C49.0248 18.5333 48.9715 18.6767 48.9582 18.85C48.9515 18.95 48.9482 19.0833 48.9482 19.25C48.9482 19.4233 48.9515 19.5667 48.9582 19.68C48.9715 19.8467 49.0215 19.99 49.1082 20.11C49.2015 20.2233 49.3448 20.28 49.5382 20.28Z" fill="white"/>
<path d="M412.978 21C412.911 21 412.855 20.9767 412.808 20.93C412.761 20.8833 412.738 20.8267 412.738 20.76V20.24C412.738 20.0533 412.821 19.8967 412.988 19.77L414.548 18.22C415.021 17.8467 415.385 17.5433 415.638 17.31C415.898 17.07 416.091 16.85 416.218 16.65C416.345 16.45 416.408 16.2533 416.408 16.06C416.408 15.7467 416.325 15.5 416.158 15.32C415.991 15.14 415.738 15.05 415.398 15.05C415.065 15.05 414.801 15.15 414.608 15.35C414.421 15.5433 414.305 15.7967 414.258 16.11C414.238 16.19 414.198 16.25 414.138 16.29C414.085 16.3233 414.025 16.34 413.958 16.34H413.058C412.998 16.34 412.948 16.32 412.908 16.28C412.868 16.24 412.848 16.19 412.848 16.13C412.861 15.7367 412.968 15.37 413.168 15.03C413.375 14.6833 413.668 14.4067 414.048 14.2C414.428 13.9867 414.875 13.88 415.388 13.88C415.921 13.88 416.375 13.9733 416.748 14.16C417.121 14.34 417.401 14.59 417.588 14.91C417.775 15.23 417.868 15.5933 417.868 16C417.868 16.4467 417.741 16.8533 417.488 17.22C417.241 17.58 416.855 17.9667 416.328 18.38L414.938 19.79H417.768C417.841 19.79 417.901 19.8133 417.948 19.86C417.995 19.9067 418.018 19.9667 418.018 20.04V20.76C418.018 20.8333 417.995 20.8933 417.948 20.94C417.901 20.98 417.841 21 417.768 21H412.978ZM421.609 21.1C421.016 21.1 420.513 21.0067 420.099 20.82C419.693 20.6333 419.386 20.4 419.179 20.12C418.979 19.8333 418.873 19.54 418.859 19.24C418.859 19.18 418.879 19.13 418.919 19.09C418.959 19.05 419.009 19.03 419.069 19.03H419.989C420.136 19.03 420.236 19.0967 420.289 19.23C420.436 19.7033 420.876 19.94 421.609 19.94C422.016 19.94 422.333 19.8467 422.559 19.66C422.793 19.4733 422.909 19.2067 422.909 18.86C422.909 18.5133 422.803 18.2633 422.589 18.11C422.383 17.95 422.076 17.87 421.669 17.87H420.639C420.573 17.87 420.516 17.8467 420.469 17.8C420.423 17.7533 420.399 17.6967 420.399 17.63V17.2C420.399 17.0733 420.443 16.9733 420.529 16.9L422.309 15.16H419.459C419.386 15.16 419.326 15.1367 419.279 15.09C419.233 15.0433 419.209 14.9867 419.209 14.92V14.25C419.209 14.1767 419.233 14.1167 419.279 14.07C419.326 14.0233 419.386 14 419.459 14H423.759C423.833 14 423.893 14.0233 423.939 14.07C423.986 14.1167 424.009 14.1767 424.009 14.25V14.86C424.009 14.9733 423.966 15.0667 423.879 15.14L422.159 16.91L422.279 16.92C422.919 16.9733 423.426 17.1667 423.799 17.5C424.179 17.8333 424.369 18.31 424.369 18.93C424.369 19.37 424.249 19.7533 424.009 20.08C423.776 20.4067 423.449 20.66 423.029 20.84C422.616 21.0133 422.143 21.1 421.609 21.1ZM426.718 17.52C426.278 17.52 425.925 17.4033 425.658 17.17C425.398 16.9367 425.255 16.62 425.228 16.22C425.221 16.1067 425.218 15.9567 425.218 15.77C425.218 15.57 425.221 15.41 425.228 15.29C425.255 14.8767 425.395 14.55 425.648 14.31C425.901 14.07 426.258 13.95 426.718 13.95C427.178 13.95 427.535 14.07 427.788 14.31C428.048 14.55 428.191 14.8767 428.218 15.29C428.231 15.53 428.238 15.69 428.238 15.77C428.238 15.8433 428.231 15.9933 428.218 16.22C428.191 16.62 428.045 16.9367 427.778 17.17C427.518 17.4033 427.165 17.52 426.718 17.52ZM425.908 21C425.841 21 425.788 20.9833 425.748 20.95C425.708 20.91 425.688 20.86 425.688 20.8C425.688 20.76 425.701 20.7233 425.728 20.69L430.658 14.19C430.711 14.1233 430.761 14.0767 430.808 14.05C430.855 14.0167 430.921 14 431.008 14H431.538C431.605 14 431.655 14.02 431.688 14.06C431.728 14.0933 431.748 14.14 431.748 14.2C431.748 14.24 431.735 14.2767 431.708 14.31L426.778 20.81C426.725 20.8767 426.675 20.9267 426.628 20.96C426.581 20.9867 426.518 21 426.438 21H425.908ZM426.718 16.77C426.911 16.77 427.051 16.7133 427.138 16.6C427.231 16.4867 427.288 16.3433 427.308 16.17C427.321 15.9433 427.328 15.8033 427.328 15.75C427.328 15.6767 427.321 15.54 427.308 15.34C427.295 15.1667 427.241 15.0233 427.148 14.91C427.055 14.79 426.911 14.73 426.718 14.73C426.531 14.73 426.391 14.79 426.298 14.91C426.205 15.0233 426.151 15.1667 426.138 15.34C426.131 15.44 426.128 15.5767 426.128 15.75C426.128 15.9167 426.131 16.0567 426.138 16.17C426.151 16.3367 426.201 16.48 426.288 16.6C426.381 16.7133 426.525 16.77 426.718 16.77ZM430.718 21.06C430.278 21.06 429.925 20.94 429.658 20.7C429.398 20.4533 429.255 20.1267 429.228 19.72C429.221 19.6067 429.218 19.4567 429.218 19.27C429.218 19.0767 429.221 18.92 429.228 18.8C429.255 18.3867 429.395 18.06 429.648 17.82C429.901 17.58 430.258 17.46 430.718 17.46C431.185 17.46 431.545 17.58 431.798 17.82C432.051 18.06 432.191 18.3867 432.218 18.8C432.231 19.04 432.238 19.1967 432.238 19.27C432.238 19.3433 432.231 19.4933 432.218 19.72C432.191 20.1267 432.045 20.4533 431.778 20.7C431.518 20.94 431.165 21.06 430.718 21.06ZM430.718 20.28C430.918 20.28 431.061 20.2233 431.148 20.11C431.241 19.99 431.295 19.8467 431.308 19.68C431.321 19.4533 431.328 19.31 431.328 19.25C431.328 19.1833 431.321 19.05 431.308 18.85C431.295 18.6767 431.241 18.5333 431.148 18.42C431.055 18.3 430.911 18.24 430.718 18.24C430.531 18.24 430.391 18.3 430.298 18.42C430.205 18.5333 430.151 18.6767 430.138 18.85C430.131 18.95 430.128 19.0833 430.128 19.25C430.128 19.4233 430.131 19.5667 430.138 19.68C430.151 19.8467 430.201 19.99 430.288 20.11C430.381 20.2233 430.525 20.28 430.718 20.28Z" fill="white"/>
</svg>
