<svg width="481" height="36" viewBox="0 0 481 36" fill="none" xmlns="http://www.w3.org/2000/svg">
<rect x="150" width="230.978" height="36" fill="#459E48"/>
<rect x="380.978" width="56.7134" height="36" fill="#FFB800"/>
<rect x="437.515" width="43.4849" height="35.7366" fill="#DA1C1C"/>
<rect x="1" width="149" height="36" fill="#3419DB"/>
<path d="M258.971 21C258.905 21 258.848 20.9767 258.801 20.93C258.755 20.8833 258.731 20.8267 258.731 20.76V19.48H255.561C255.495 19.48 255.438 19.4567 255.391 19.41C255.345 19.3633 255.321 19.3067 255.321 19.24V18.55C255.321 18.4433 255.358 18.3433 255.431 18.25L258.381 14.17C258.415 14.1167 258.465 14.0767 258.531 14.05C258.598 14.0167 258.671 14 258.751 14H259.851C259.925 14 259.981 14.0233 260.021 14.07C260.068 14.11 260.091 14.1667 260.091 14.24V18.29H260.991C261.065 18.29 261.121 18.3133 261.161 18.36C261.208 18.4 261.231 18.4567 261.231 18.53V19.24C261.231 19.3067 261.208 19.3633 261.161 19.41C261.121 19.4567 261.065 19.48 260.991 19.48H260.091V20.76C260.091 20.8267 260.068 20.8833 260.021 20.93C259.981 20.9767 259.925 21 259.851 21H258.971ZM256.731 18.33H258.761V15.46L256.731 18.33ZM264.835 21.1C264.255 21.1 263.755 21.01 263.335 20.83C262.921 20.6433 262.605 20.3867 262.385 20.06C262.165 19.7333 262.055 19.36 262.055 18.94C262.055 18.5667 262.145 18.2367 262.325 17.95C262.511 17.6567 262.761 17.4333 263.075 17.28C262.828 17.1267 262.638 16.93 262.505 16.69C262.371 16.4433 262.305 16.1633 262.305 15.85C262.305 15.2633 262.525 14.7933 262.965 14.44C263.411 14.08 264.035 13.9 264.835 13.9C265.635 13.9 266.255 14.0767 266.695 14.43C267.135 14.7833 267.355 15.2533 267.355 15.84C267.355 16.1533 267.288 16.4333 267.155 16.68C267.028 16.92 266.841 17.12 266.595 17.28C266.915 17.4333 267.165 17.6567 267.345 17.95C267.531 18.2367 267.625 18.57 267.625 18.95C267.625 19.37 267.515 19.7433 267.295 20.07C267.075 20.39 266.755 20.6433 266.335 20.83C265.915 21.01 265.415 21.1 264.835 21.1ZM264.835 16.84C265.181 16.8333 265.468 16.7467 265.695 16.58C265.928 16.4067 266.045 16.18 266.045 15.9C266.045 15.6133 265.931 15.3833 265.705 15.21C265.478 15.0367 265.188 14.95 264.835 14.95C264.488 14.95 264.201 15.0367 263.975 15.21C263.748 15.3833 263.635 15.6133 263.635 15.9C263.635 16.1867 263.748 16.4167 263.975 16.59C264.201 16.7567 264.488 16.84 264.835 16.84ZM264.835 20.05C265.228 20.05 265.555 19.95 265.815 19.75C266.081 19.55 266.215 19.2833 266.215 18.95C266.215 18.6167 266.081 18.35 265.815 18.15C265.555 17.95 265.228 17.85 264.835 17.85C264.441 17.85 264.115 17.95 263.855 18.15C263.595 18.3433 263.465 18.61 263.465 18.95C263.465 19.2833 263.595 19.55 263.855 19.75C264.115 19.95 264.441 20.05 264.835 20.05ZM270.047 17.52C269.607 17.52 269.254 17.4033 268.987 17.17C268.727 16.9367 268.584 16.62 268.557 16.22C268.55 16.1067 268.547 15.9567 268.547 15.77C268.547 15.57 268.55 15.41 268.557 15.29C268.584 14.8767 268.724 14.55 268.977 14.31C269.23 14.07 269.587 13.95 270.047 13.95C270.507 13.95 270.864 14.07 271.117 14.31C271.377 14.55 271.52 14.8767 271.547 15.29C271.56 15.53 271.567 15.69 271.567 15.77C271.567 15.8433 271.56 15.9933 271.547 16.22C271.52 16.62 271.374 16.9367 271.107 17.17C270.847 17.4033 270.494 17.52 270.047 17.52ZM269.237 21C269.17 21 269.117 20.9833 269.077 20.95C269.037 20.91 269.017 20.86 269.017 20.8C269.017 20.76 269.03 20.7233 269.057 20.69L273.987 14.19C274.04 14.1233 274.09 14.0767 274.137 14.05C274.184 14.0167 274.25 14 274.337 14H274.867C274.934 14 274.984 14.02 275.017 14.06C275.057 14.0933 275.077 14.14 275.077 14.2C275.077 14.24 275.064 14.2767 275.037 14.31L270.107 20.81C270.054 20.8767 270.004 20.9267 269.957 20.96C269.91 20.9867 269.847 21 269.767 21H269.237ZM270.047 16.77C270.24 16.77 270.38 16.7133 270.467 16.6C270.56 16.4867 270.617 16.3433 270.637 16.17C270.65 15.9433 270.657 15.8033 270.657 15.75C270.657 15.6767 270.65 15.54 270.637 15.34C270.624 15.1667 270.57 15.0233 270.477 14.91C270.384 14.79 270.24 14.73 270.047 14.73C269.86 14.73 269.72 14.79 269.627 14.91C269.534 15.0233 269.48 15.1667 269.467 15.34C269.46 15.44 269.457 15.5767 269.457 15.75C269.457 15.9167 269.46 16.0567 269.467 16.17C269.48 16.3367 269.53 16.48 269.617 16.6C269.71 16.7133 269.854 16.77 270.047 16.77ZM274.047 21.06C273.607 21.06 273.254 20.94 272.987 20.7C272.727 20.4533 272.584 20.1267 272.557 19.72C272.55 19.6067 272.547 19.4567 272.547 19.27C272.547 19.0767 272.55 18.92 272.557 18.8C272.584 18.3867 272.724 18.06 272.977 17.82C273.23 17.58 273.587 17.46 274.047 17.46C274.514 17.46 274.874 17.58 275.127 17.82C275.38 18.06 275.52 18.3867 275.547 18.8C275.56 19.04 275.567 19.1967 275.567 19.27C275.567 19.3433 275.56 19.4933 275.547 19.72C275.52 20.1267 275.374 20.4533 275.107 20.7C274.847 20.94 274.494 21.06 274.047 21.06ZM274.047 20.28C274.247 20.28 274.39 20.2233 274.477 20.11C274.57 19.99 274.624 19.8467 274.637 19.68C274.65 19.4533 274.657 19.31 274.657 19.25C274.657 19.1833 274.65 19.05 274.637 18.85C274.624 18.6767 274.57 18.5333 274.477 18.42C274.384 18.3 274.24 18.24 274.047 18.24C273.86 18.24 273.72 18.3 273.627 18.42C273.534 18.5333 273.48 18.6767 273.467 18.85C273.46 18.95 273.457 19.0833 273.457 19.25C273.457 19.4233 273.46 19.5667 273.467 19.68C273.48 19.8467 273.53 19.99 273.617 20.11C273.71 20.2233 273.854 20.28 274.047 20.28Z" fill="white"/>
<path d="M68.7987 21.1C68.2054 21.1 67.702 21.0067 67.2887 20.82C66.882 20.6333 66.5754 20.4 66.3687 20.12C66.1687 19.8333 66.062 19.54 66.0487 19.24C66.0487 19.18 66.0687 19.13 66.1087 19.09C66.1487 19.05 66.1987 19.03 66.2587 19.03H67.1787C67.3254 19.03 67.4254 19.0967 67.4787 19.23C67.6254 19.7033 68.0654 19.94 68.7987 19.94C69.2054 19.94 69.522 19.8467 69.7487 19.66C69.982 19.4733 70.0987 19.2067 70.0987 18.86C70.0987 18.5133 69.992 18.2633 69.7787 18.11C69.572 17.95 69.2654 17.87 68.8587 17.87H67.8287C67.762 17.87 67.7054 17.8467 67.6587 17.8C67.612 17.7533 67.5887 17.6967 67.5887 17.63V17.2C67.5887 17.0733 67.632 16.9733 67.7187 16.9L69.4987 15.16H66.6487C66.5754 15.16 66.5154 15.1367 66.4687 15.09C66.422 15.0433 66.3987 14.9867 66.3987 14.92V14.25C66.3987 14.1767 66.422 14.1167 66.4687 14.07C66.5154 14.0233 66.5754 14 66.6487 14H70.9487C71.022 14 71.082 14.0233 71.1287 14.07C71.1754 14.1167 71.1987 14.1767 71.1987 14.25V14.86C71.1987 14.9733 71.1554 15.0667 71.0687 15.14L69.3487 16.91L69.4687 16.92C70.1087 16.9733 70.6154 17.1667 70.9887 17.5C71.3687 17.8333 71.5587 18.31 71.5587 18.93C71.5587 19.37 71.4387 19.7533 71.1987 20.08C70.9654 20.4067 70.6387 20.66 70.2187 20.84C69.8054 21.0133 69.332 21.1 68.7987 21.1ZM74.6011 21C74.5344 21 74.4777 20.9767 74.4311 20.93C74.3844 20.8833 74.3611 20.8267 74.3611 20.76V15.6L72.8511 16.76C72.8111 16.7933 72.7611 16.81 72.7011 16.81C72.6211 16.81 72.5577 16.7767 72.5111 16.71L72.0811 16.15C72.0477 16.1033 72.0311 16.0567 72.0311 16.01C72.0311 15.93 72.0677 15.8633 72.1411 15.81L74.3811 14.07C74.4544 14.0233 74.5377 14 74.6311 14H75.5311C75.5977 14 75.6544 14.0233 75.7011 14.07C75.7477 14.1167 75.7711 14.1733 75.7711 14.24V20.76C75.7711 20.8267 75.7477 20.8833 75.7011 20.93C75.6544 20.9767 75.5977 21 75.5311 21H74.6011ZM78.3897 17.52C77.9497 17.52 77.5964 17.4033 77.3297 17.17C77.0697 16.9367 76.9264 16.62 76.8997 16.22C76.8931 16.1067 76.8897 15.9567 76.8897 15.77C76.8897 15.57 76.8931 15.41 76.8997 15.29C76.9264 14.8767 77.0664 14.55 77.3197 14.31C77.5731 14.07 77.9297 13.95 78.3897 13.95C78.8497 13.95 79.2064 14.07 79.4597 14.31C79.7197 14.55 79.8631 14.8767 79.8897 15.29C79.9031 15.53 79.9097 15.69 79.9097 15.77C79.9097 15.8433 79.9031 15.9933 79.8897 16.22C79.8631 16.62 79.7164 16.9367 79.4497 17.17C79.1897 17.4033 78.8364 17.52 78.3897 17.52ZM77.5797 21C77.5131 21 77.4597 20.9833 77.4197 20.95C77.3797 20.91 77.3597 20.86 77.3597 20.8C77.3597 20.76 77.3731 20.7233 77.3997 20.69L82.3297 14.19C82.3831 14.1233 82.4331 14.0767 82.4797 14.05C82.5264 14.0167 82.5931 14 82.6797 14H83.2097C83.2764 14 83.3264 14.02 83.3597 14.06C83.3997 14.0933 83.4197 14.14 83.4197 14.2C83.4197 14.24 83.4064 14.2767 83.3797 14.31L78.4497 20.81C78.3964 20.8767 78.3464 20.9267 78.2997 20.96C78.2531 20.9867 78.1897 21 78.1097 21H77.5797ZM78.3897 16.77C78.5831 16.77 78.7231 16.7133 78.8097 16.6C78.9031 16.4867 78.9597 16.3433 78.9797 16.17C78.9931 15.9433 78.9997 15.8033 78.9997 15.75C78.9997 15.6767 78.9931 15.54 78.9797 15.34C78.9664 15.1667 78.9131 15.0233 78.8197 14.91C78.7264 14.79 78.5831 14.73 78.3897 14.73C78.2031 14.73 78.0631 14.79 77.9697 14.91C77.8764 15.0233 77.8231 15.1667 77.8097 15.34C77.8031 15.44 77.7997 15.5767 77.7997 15.75C77.7997 15.9167 77.8031 16.0567 77.8097 16.17C77.8231 16.3367 77.8731 16.48 77.9597 16.6C78.0531 16.7133 78.1964 16.77 78.3897 16.77ZM82.3897 21.06C81.9497 21.06 81.5964 20.94 81.3297 20.7C81.0697 20.4533 80.9264 20.1267 80.8997 19.72C80.8931 19.6067 80.8897 19.4567 80.8897 19.27C80.8897 19.0767 80.8931 18.92 80.8997 18.8C80.9264 18.3867 81.0664 18.06 81.3197 17.82C81.5731 17.58 81.9297 17.46 82.3897 17.46C82.8564 17.46 83.2164 17.58 83.4697 17.82C83.7231 18.06 83.8631 18.3867 83.8897 18.8C83.9031 19.04 83.9097 19.1967 83.9097 19.27C83.9097 19.3433 83.9031 19.4933 83.8897 19.72C83.8631 20.1267 83.7164 20.4533 83.4497 20.7C83.1897 20.94 82.8364 21.06 82.3897 21.06ZM82.3897 20.28C82.5897 20.28 82.7331 20.2233 82.8197 20.11C82.9131 19.99 82.9664 19.8467 82.9797 19.68C82.9931 19.4533 82.9997 19.31 82.9997 19.25C82.9997 19.1833 82.9931 19.05 82.9797 18.85C82.9664 18.6767 82.9131 18.5333 82.8197 18.42C82.7264 18.3 82.5831 18.24 82.3897 18.24C82.2031 18.24 82.0631 18.3 81.9697 18.42C81.8764 18.5333 81.8231 18.6767 81.8097 18.85C81.8031 18.95 81.7997 19.0833 81.7997 19.25C81.7997 19.4233 81.8031 19.5667 81.8097 19.68C81.8231 19.8467 81.8731 19.99 81.9597 20.11C82.0531 20.2233 82.1964 20.28 82.3897 20.28Z" fill="white"/>
<path d="M403.025 21C402.958 21 402.901 20.9767 402.855 20.93C402.808 20.8833 402.785 20.8267 402.785 20.76V15.6L401.275 16.76C401.235 16.7933 401.185 16.81 401.125 16.81C401.045 16.81 400.981 16.7767 400.935 16.71L400.505 16.15C400.471 16.1033 400.455 16.0567 400.455 16.01C400.455 15.93 400.491 15.8633 400.565 15.81L402.805 14.07C402.878 14.0233 402.961 14 403.055 14H403.955C404.021 14 404.078 14.0233 404.125 14.07C404.171 14.1167 404.195 14.1733 404.195 14.24V20.76C404.195 20.8267 404.171 20.8833 404.125 20.93C404.078 20.9767 404.021 21 403.955 21H403.025ZM407.663 21C407.597 21 407.54 20.9767 407.493 20.93C407.447 20.8833 407.423 20.8267 407.423 20.76V15.6L405.913 16.76C405.873 16.7933 405.823 16.81 405.763 16.81C405.683 16.81 405.62 16.7767 405.573 16.71L405.143 16.15C405.11 16.1033 405.093 16.0567 405.093 16.01C405.093 15.93 405.13 15.8633 405.203 15.81L407.443 14.07C407.517 14.0233 407.6 14 407.693 14H408.593C408.66 14 408.717 14.0233 408.763 14.07C408.81 14.1167 408.833 14.1733 408.833 14.24V20.76C408.833 20.8267 408.81 20.8833 408.763 20.93C408.717 20.9767 408.66 21 408.593 21H407.663ZM411.452 17.52C411.012 17.52 410.659 17.4033 410.392 17.17C410.132 16.9367 409.989 16.62 409.962 16.22C409.955 16.1067 409.952 15.9567 409.952 15.77C409.952 15.57 409.955 15.41 409.962 15.29C409.989 14.8767 410.129 14.55 410.382 14.31C410.635 14.07 410.992 13.95 411.452 13.95C411.912 13.95 412.269 14.07 412.522 14.31C412.782 14.55 412.925 14.8767 412.952 15.29C412.965 15.53 412.972 15.69 412.972 15.77C412.972 15.8433 412.965 15.9933 412.952 16.22C412.925 16.62 412.779 16.9367 412.512 17.17C412.252 17.4033 411.899 17.52 411.452 17.52ZM410.642 21C410.575 21 410.522 20.9833 410.482 20.95C410.442 20.91 410.422 20.86 410.422 20.8C410.422 20.76 410.435 20.7233 410.462 20.69L415.392 14.19C415.445 14.1233 415.495 14.0767 415.542 14.05C415.589 14.0167 415.655 14 415.742 14H416.272C416.339 14 416.389 14.02 416.422 14.06C416.462 14.0933 416.482 14.14 416.482 14.2C416.482 14.24 416.469 14.2767 416.442 14.31L411.512 20.81C411.459 20.8767 411.409 20.9267 411.362 20.96C411.315 20.9867 411.252 21 411.172 21H410.642ZM411.452 16.77C411.645 16.77 411.785 16.7133 411.872 16.6C411.965 16.4867 412.022 16.3433 412.042 16.17C412.055 15.9433 412.062 15.8033 412.062 15.75C412.062 15.6767 412.055 15.54 412.042 15.34C412.029 15.1667 411.975 15.0233 411.882 14.91C411.789 14.79 411.645 14.73 411.452 14.73C411.265 14.73 411.125 14.79 411.032 14.91C410.939 15.0233 410.885 15.1667 410.872 15.34C410.865 15.44 410.862 15.5767 410.862 15.75C410.862 15.9167 410.865 16.0567 410.872 16.17C410.885 16.3367 410.935 16.48 411.022 16.6C411.115 16.7133 411.259 16.77 411.452 16.77ZM415.452 21.06C415.012 21.06 414.659 20.94 414.392 20.7C414.132 20.4533 413.989 20.1267 413.962 19.72C413.955 19.6067 413.952 19.4567 413.952 19.27C413.952 19.0767 413.955 18.92 413.962 18.8C413.989 18.3867 414.129 18.06 414.382 17.82C414.635 17.58 414.992 17.46 415.452 17.46C415.919 17.46 416.279 17.58 416.532 17.82C416.785 18.06 416.925 18.3867 416.952 18.8C416.965 19.04 416.972 19.1967 416.972 19.27C416.972 19.3433 416.965 19.4933 416.952 19.72C416.925 20.1267 416.779 20.4533 416.512 20.7C416.252 20.94 415.899 21.06 415.452 21.06ZM415.452 20.28C415.652 20.28 415.795 20.2233 415.882 20.11C415.975 19.99 416.029 19.8467 416.042 19.68C416.055 19.4533 416.062 19.31 416.062 19.25C416.062 19.1833 416.055 19.05 416.042 18.85C416.029 18.6767 415.975 18.5333 415.882 18.42C415.789 18.3 415.645 18.24 415.452 18.24C415.265 18.24 415.125 18.3 415.032 18.42C414.939 18.5333 414.885 18.6767 414.872 18.85C414.865 18.95 414.862 19.0833 414.862 19.25C414.862 19.4233 414.865 19.5667 414.872 19.68C414.885 19.8467 414.935 19.99 415.022 20.11C415.115 20.2233 415.259 20.28 415.452 20.28Z" fill="white"/>
<path d="M453.817 21C453.757 21 453.707 20.98 453.667 20.94C453.627 20.8933 453.607 20.84 453.607 20.78C453.607 20.74 453.623 20.6967 453.657 20.65L455.127 18.63C455.013 18.6567 454.873 18.67 454.707 18.67C454.267 18.6567 453.863 18.5467 453.497 18.34C453.137 18.1267 452.85 17.8467 452.637 17.5C452.423 17.1467 452.317 16.7567 452.317 16.33C452.317 15.91 452.42 15.5167 452.627 15.15C452.833 14.7767 453.14 14.4767 453.547 14.25C453.953 14.0167 454.443 13.9 455.017 13.9C455.597 13.9 456.093 14.01 456.507 14.23C456.92 14.4433 457.23 14.7333 457.437 15.1C457.65 15.46 457.757 15.8567 457.757 16.29C457.757 16.5633 457.713 16.82 457.627 17.06C457.54 17.3 457.44 17.51 457.327 17.69C457.22 17.8633 457.067 18.09 456.867 18.37L455.117 20.8C455.063 20.8667 455.013 20.9167 454.967 20.95C454.92 20.9833 454.857 21 454.777 21H453.817ZM455.027 17.59C455.393 17.59 455.7 17.4767 455.947 17.25C456.193 17.0167 456.317 16.71 456.317 16.33C456.317 15.9433 456.193 15.6367 455.947 15.41C455.7 15.1767 455.393 15.06 455.027 15.06C454.667 15.06 454.363 15.1767 454.117 15.41C453.87 15.6367 453.747 15.9433 453.747 16.33C453.747 16.71 453.867 17.0167 454.107 17.25C454.353 17.4767 454.66 17.59 455.027 17.59ZM460.088 17.52C459.648 17.52 459.295 17.4033 459.028 17.17C458.768 16.9367 458.625 16.62 458.598 16.22C458.592 16.1067 458.588 15.9567 458.588 15.77C458.588 15.57 458.592 15.41 458.598 15.29C458.625 14.8767 458.765 14.55 459.018 14.31C459.272 14.07 459.628 13.95 460.088 13.95C460.548 13.95 460.905 14.07 461.158 14.31C461.418 14.55 461.562 14.8767 461.588 15.29C461.602 15.53 461.608 15.69 461.608 15.77C461.608 15.8433 461.602 15.9933 461.588 16.22C461.562 16.62 461.415 16.9367 461.148 17.17C460.888 17.4033 460.535 17.52 460.088 17.52ZM459.278 21C459.212 21 459.158 20.9833 459.118 20.95C459.078 20.91 459.058 20.86 459.058 20.8C459.058 20.76 459.072 20.7233 459.098 20.69L464.028 14.19C464.082 14.1233 464.132 14.0767 464.178 14.05C464.225 14.0167 464.292 14 464.378 14H464.908C464.975 14 465.025 14.02 465.058 14.06C465.098 14.0933 465.118 14.14 465.118 14.2C465.118 14.24 465.105 14.2767 465.078 14.31L460.148 20.81C460.095 20.8767 460.045 20.9267 459.998 20.96C459.952 20.9867 459.888 21 459.808 21H459.278ZM460.088 16.77C460.282 16.77 460.422 16.7133 460.508 16.6C460.602 16.4867 460.658 16.3433 460.678 16.17C460.692 15.9433 460.698 15.8033 460.698 15.75C460.698 15.6767 460.692 15.54 460.678 15.34C460.665 15.1667 460.612 15.0233 460.518 14.91C460.425 14.79 460.282 14.73 460.088 14.73C459.902 14.73 459.762 14.79 459.668 14.91C459.575 15.0233 459.522 15.1667 459.508 15.34C459.502 15.44 459.498 15.5767 459.498 15.75C459.498 15.9167 459.502 16.0567 459.508 16.17C459.522 16.3367 459.572 16.48 459.658 16.6C459.752 16.7133 459.895 16.77 460.088 16.77ZM464.088 21.06C463.648 21.06 463.295 20.94 463.028 20.7C462.768 20.4533 462.625 20.1267 462.598 19.72C462.592 19.6067 462.588 19.4567 462.588 19.27C462.588 19.0767 462.592 18.92 462.598 18.8C462.625 18.3867 462.765 18.06 463.018 17.82C463.272 17.58 463.628 17.46 464.088 17.46C464.555 17.46 464.915 17.58 465.168 17.82C465.422 18.06 465.562 18.3867 465.588 18.8C465.602 19.04 465.608 19.1967 465.608 19.27C465.608 19.3433 465.602 19.4933 465.588 19.72C465.562 20.1267 465.415 20.4533 465.148 20.7C464.888 20.94 464.535 21.06 464.088 21.06ZM464.088 20.28C464.288 20.28 464.432 20.2233 464.518 20.11C464.612 19.99 464.665 19.8467 464.678 19.68C464.692 19.4533 464.698 19.31 464.698 19.25C464.698 19.1833 464.692 19.05 464.678 18.85C464.665 18.6767 464.612 18.5333 464.518 18.42C464.425 18.3 464.282 18.24 464.088 18.24C463.902 18.24 463.762 18.3 463.668 18.42C463.575 18.5333 463.522 18.6767 463.508 18.85C463.502 18.95 463.498 19.0833 463.498 19.25C463.498 19.4233 463.502 19.5667 463.508 19.68C463.522 19.8467 463.572 19.99 463.658 20.11C463.752 20.2233 463.895 20.28 464.088 20.28Z" fill="white"/>
</svg>
