<svg width="480" height="36" viewBox="0 0 480 36" fill="none" xmlns="http://www.w3.org/2000/svg">
<rect x="63" width="212" height="36" fill="#459E48"/>
<rect x="275" width="142" height="36" fill="#FFB800"/>
<rect x="417.136" width="62.8637" height="35.7366" fill="#DA1C1C"/>
<rect width="62.8637" height="35.7366" fill="#3419DB"/>
<path d="M162.491 21C162.424 21 162.368 20.9767 162.321 20.93C162.274 20.8833 162.251 20.8267 162.251 20.76V19.48H159.081C159.014 19.48 158.958 19.4567 158.911 19.41C158.864 19.3633 158.841 19.3067 158.841 19.24V18.55C158.841 18.4433 158.878 18.3433 158.951 18.25L161.901 14.17C161.934 14.1167 161.984 14.0767 162.051 14.05C162.118 14.0167 162.191 14 162.271 14H163.371C163.444 14 163.501 14.0233 163.541 14.07C163.588 14.11 163.611 14.1667 163.611 14.24V18.29H164.511C164.584 18.29 164.641 18.3133 164.681 18.36C164.728 18.4 164.751 18.4567 164.751 18.53V19.24C164.751 19.3067 164.728 19.3633 164.681 19.41C164.641 19.4567 164.584 19.48 164.511 19.48H163.611V20.76C163.611 20.8267 163.588 20.8833 163.541 20.93C163.501 20.9767 163.444 21 163.371 21H162.491ZM160.251 18.33H162.281V15.46L160.251 18.33ZM169.024 21C168.958 21 168.901 20.9767 168.854 20.93C168.808 20.8833 168.784 20.8267 168.784 20.76V19.48H165.614C165.548 19.48 165.491 19.4567 165.444 19.41C165.398 19.3633 165.374 19.3067 165.374 19.24V18.55C165.374 18.4433 165.411 18.3433 165.484 18.25L168.434 14.17C168.468 14.1167 168.518 14.0767 168.584 14.05C168.651 14.0167 168.724 14 168.804 14H169.904C169.978 14 170.034 14.0233 170.074 14.07C170.121 14.11 170.144 14.1667 170.144 14.24V18.29H171.044C171.118 18.29 171.174 18.3133 171.214 18.36C171.261 18.4 171.284 18.4567 171.284 18.53V19.24C171.284 19.3067 171.261 19.3633 171.214 19.41C171.174 19.4567 171.118 19.48 171.044 19.48H170.144V20.76C170.144 20.8267 170.121 20.8833 170.074 20.93C170.034 20.9767 169.978 21 169.904 21H169.024ZM166.784 18.33H168.814V15.46L166.784 18.33ZM173.527 17.52C173.087 17.52 172.734 17.4033 172.467 17.17C172.207 16.9367 172.064 16.62 172.037 16.22C172.031 16.1067 172.027 15.9567 172.027 15.77C172.027 15.57 172.031 15.41 172.037 15.29C172.064 14.8767 172.204 14.55 172.457 14.31C172.711 14.07 173.067 13.95 173.527 13.95C173.987 13.95 174.344 14.07 174.597 14.31C174.857 14.55 175.001 14.8767 175.027 15.29C175.041 15.53 175.047 15.69 175.047 15.77C175.047 15.8433 175.041 15.9933 175.027 16.22C175.001 16.62 174.854 16.9367 174.587 17.17C174.327 17.4033 173.974 17.52 173.527 17.52ZM172.717 21C172.651 21 172.597 20.9833 172.557 20.95C172.517 20.91 172.497 20.86 172.497 20.8C172.497 20.76 172.511 20.7233 172.537 20.69L177.467 14.19C177.521 14.1233 177.571 14.0767 177.617 14.05C177.664 14.0167 177.731 14 177.817 14H178.347C178.414 14 178.464 14.02 178.497 14.06C178.537 14.0933 178.557 14.14 178.557 14.2C178.557 14.24 178.544 14.2767 178.517 14.31L173.587 20.81C173.534 20.8767 173.484 20.9267 173.437 20.96C173.391 20.9867 173.327 21 173.247 21H172.717ZM173.527 16.77C173.721 16.77 173.861 16.7133 173.947 16.6C174.041 16.4867 174.097 16.3433 174.117 16.17C174.131 15.9433 174.137 15.8033 174.137 15.75C174.137 15.6767 174.131 15.54 174.117 15.34C174.104 15.1667 174.051 15.0233 173.957 14.91C173.864 14.79 173.721 14.73 173.527 14.73C173.341 14.73 173.201 14.79 173.107 14.91C173.014 15.0233 172.961 15.1667 172.947 15.34C172.941 15.44 172.937 15.5767 172.937 15.75C172.937 15.9167 172.941 16.0567 172.947 16.17C172.961 16.3367 173.011 16.48 173.097 16.6C173.191 16.7133 173.334 16.77 173.527 16.77ZM177.527 21.06C177.087 21.06 176.734 20.94 176.467 20.7C176.207 20.4533 176.064 20.1267 176.037 19.72C176.031 19.6067 176.027 19.4567 176.027 19.27C176.027 19.0767 176.031 18.92 176.037 18.8C176.064 18.3867 176.204 18.06 176.457 17.82C176.711 17.58 177.067 17.46 177.527 17.46C177.994 17.46 178.354 17.58 178.607 17.82C178.861 18.06 179.001 18.3867 179.027 18.8C179.041 19.04 179.047 19.1967 179.047 19.27C179.047 19.3433 179.041 19.4933 179.027 19.72C179.001 20.1267 178.854 20.4533 178.587 20.7C178.327 20.94 177.974 21.06 177.527 21.06ZM177.527 20.28C177.727 20.28 177.871 20.2233 177.957 20.11C178.051 19.99 178.104 19.8467 178.117 19.68C178.131 19.4533 178.137 19.31 178.137 19.25C178.137 19.1833 178.131 19.05 178.117 18.85C178.104 18.6767 178.051 18.5333 177.957 18.42C177.864 18.3 177.721 18.24 177.527 18.24C177.341 18.24 177.201 18.3 177.107 18.42C177.014 18.5333 176.961 18.6767 176.947 18.85C176.941 18.95 176.937 19.0833 176.937 19.25C176.937 19.4233 176.941 19.5667 176.947 19.68C176.961 19.8467 177.011 19.99 177.097 20.11C177.191 20.2233 177.334 20.28 177.527 20.28Z" fill="white"/>
<path d="M25.4243 21C25.3576 21 25.301 20.9767 25.2543 20.93C25.2076 20.8833 25.1843 20.8267 25.1843 20.76V15.6L23.6743 16.76C23.6343 16.7933 23.5843 16.81 23.5243 16.81C23.4443 16.81 23.381 16.7767 23.3343 16.71L22.9043 16.15C22.871 16.1033 22.8543 16.0567 22.8543 16.01C22.8543 15.93 22.891 15.8633 22.9643 15.81L25.2043 14.07C25.2776 14.0233 25.361 14 25.4543 14H26.3543C26.421 14 26.4776 14.0233 26.5243 14.07C26.571 14.1167 26.5943 14.1733 26.5943 14.24V20.76C26.5943 20.8267 26.571 20.8833 26.5243 20.93C26.4776 20.9767 26.421 21 26.3543 21H25.4243ZM27.983 21C27.9163 21 27.8596 20.9767 27.813 20.93C27.7663 20.8833 27.743 20.8267 27.743 20.76V20.24C27.743 20.0533 27.8263 19.8967 27.993 19.77L29.553 18.22C30.0263 17.8467 30.3896 17.5433 30.643 17.31C30.903 17.07 31.0963 16.85 31.223 16.65C31.3496 16.45 31.413 16.2533 31.413 16.06C31.413 15.7467 31.3296 15.5 31.163 15.32C30.9963 15.14 30.743 15.05 30.403 15.05C30.0696 15.05 29.8063 15.15 29.613 15.35C29.4263 15.5433 29.3096 15.7967 29.263 16.11C29.243 16.19 29.203 16.25 29.143 16.29C29.0896 16.3233 29.0296 16.34 28.963 16.34H28.063C28.003 16.34 27.953 16.32 27.913 16.28C27.873 16.24 27.853 16.19 27.853 16.13C27.8663 15.7367 27.973 15.37 28.173 15.03C28.3796 14.6833 28.673 14.4067 29.053 14.2C29.433 13.9867 29.8796 13.88 30.393 13.88C30.9263 13.88 31.3796 13.9733 31.753 14.16C32.1263 14.34 32.4063 14.59 32.593 14.91C32.7796 15.23 32.873 15.5933 32.873 16C32.873 16.4467 32.7463 16.8533 32.493 17.22C32.2463 17.58 31.8596 17.9667 31.333 18.38L29.943 19.79H32.773C32.8463 19.79 32.9063 19.8133 32.953 19.86C32.9996 19.9067 33.023 19.9667 33.023 20.04V20.76C33.023 20.8333 32.9996 20.8933 32.953 20.94C32.9063 20.98 32.8463 21 32.773 21H27.983ZM35.4141 17.52C34.9741 17.52 34.6208 17.4033 34.3541 17.17C34.0941 16.9367 33.9508 16.62 33.9241 16.22C33.9175 16.1067 33.9141 15.9567 33.9141 15.77C33.9141 15.57 33.9175 15.41 33.9241 15.29C33.9508 14.8767 34.0908 14.55 34.3441 14.31C34.5975 14.07 34.9541 13.95 35.4141 13.95C35.8741 13.95 36.2308 14.07 36.4841 14.31C36.7441 14.55 36.8875 14.8767 36.9141 15.29C36.9275 15.53 36.9341 15.69 36.9341 15.77C36.9341 15.8433 36.9275 15.9933 36.9141 16.22C36.8875 16.62 36.7408 16.9367 36.4741 17.17C36.2141 17.4033 35.8608 17.52 35.4141 17.52ZM34.6041 21C34.5375 21 34.4841 20.9833 34.4441 20.95C34.4041 20.91 34.3841 20.86 34.3841 20.8C34.3841 20.76 34.3975 20.7233 34.4241 20.69L39.3541 14.19C39.4075 14.1233 39.4575 14.0767 39.5041 14.05C39.5508 14.0167 39.6175 14 39.7041 14H40.2341C40.3008 14 40.3508 14.02 40.3841 14.06C40.4241 14.0933 40.4441 14.14 40.4441 14.2C40.4441 14.24 40.4308 14.2767 40.4041 14.31L35.4741 20.81C35.4208 20.8767 35.3708 20.9267 35.3241 20.96C35.2775 20.9867 35.2141 21 35.1341 21H34.6041ZM35.4141 16.77C35.6075 16.77 35.7475 16.7133 35.8341 16.6C35.9275 16.4867 35.9841 16.3433 36.0041 16.17C36.0175 15.9433 36.0241 15.8033 36.0241 15.75C36.0241 15.6767 36.0175 15.54 36.0041 15.34C35.9908 15.1667 35.9375 15.0233 35.8441 14.91C35.7508 14.79 35.6075 14.73 35.4141 14.73C35.2275 14.73 35.0875 14.79 34.9941 14.91C34.9008 15.0233 34.8475 15.1667 34.8341 15.34C34.8275 15.44 34.8241 15.5767 34.8241 15.75C34.8241 15.9167 34.8275 16.0567 34.8341 16.17C34.8475 16.3367 34.8975 16.48 34.9841 16.6C35.0775 16.7133 35.2208 16.77 35.4141 16.77ZM39.4141 21.06C38.9741 21.06 38.6208 20.94 38.3541 20.7C38.0941 20.4533 37.9508 20.1267 37.9241 19.72C37.9175 19.6067 37.9141 19.4567 37.9141 19.27C37.9141 19.0767 37.9175 18.92 37.9241 18.8C37.9508 18.3867 38.0908 18.06 38.3441 17.82C38.5975 17.58 38.9541 17.46 39.4141 17.46C39.8808 17.46 40.2408 17.58 40.4941 17.82C40.7475 18.06 40.8875 18.3867 40.9141 18.8C40.9275 19.04 40.9341 19.1967 40.9341 19.27C40.9341 19.3433 40.9275 19.4933 40.9141 19.72C40.8875 20.1267 40.7408 20.4533 40.4741 20.7C40.2141 20.94 39.8608 21.06 39.4141 21.06ZM39.4141 20.28C39.6141 20.28 39.7575 20.2233 39.8441 20.11C39.9375 19.99 39.9908 19.8467 40.0041 19.68C40.0175 19.4533 40.0241 19.31 40.0241 19.25C40.0241 19.1833 40.0175 19.05 40.0041 18.85C39.9908 18.6767 39.9375 18.5333 39.8441 18.42C39.7508 18.3 39.6075 18.24 39.4141 18.24C39.2275 18.24 39.0875 18.3 38.9941 18.42C38.9008 18.5333 38.8475 18.6767 38.8341 18.85C38.8275 18.95 38.8241 19.0833 38.8241 19.25C38.8241 19.4233 38.8275 19.5667 38.8341 19.68C38.8475 19.8467 38.8975 19.99 38.9841 20.11C39.0775 20.2233 39.2208 20.28 39.4141 20.28Z" fill="white"/>
<path d="M336.073 21C336.006 21 335.949 20.9767 335.903 20.93C335.856 20.8833 335.833 20.8267 335.833 20.76V20.24C335.833 20.0533 335.916 19.8967 336.083 19.77L337.643 18.22C338.116 17.8467 338.479 17.5433 338.733 17.31C338.993 17.07 339.186 16.85 339.313 16.65C339.439 16.45 339.503 16.2533 339.503 16.06C339.503 15.7467 339.419 15.5 339.253 15.32C339.086 15.14 338.833 15.05 338.493 15.05C338.159 15.05 337.896 15.15 337.703 15.35C337.516 15.5433 337.399 15.7967 337.353 16.11C337.333 16.19 337.293 16.25 337.233 16.29C337.179 16.3233 337.119 16.34 337.053 16.34H336.153C336.093 16.34 336.043 16.32 336.003 16.28C335.963 16.24 335.943 16.19 335.943 16.13C335.956 15.7367 336.063 15.37 336.263 15.03C336.469 14.6833 336.763 14.4067 337.143 14.2C337.523 13.9867 337.969 13.88 338.483 13.88C339.016 13.88 339.469 13.9733 339.843 14.16C340.216 14.34 340.496 14.59 340.683 14.91C340.869 15.23 340.963 15.5933 340.963 16C340.963 16.4467 340.836 16.8533 340.583 17.22C340.336 17.58 339.949 17.9667 339.423 18.38L338.033 19.79H340.863C340.936 19.79 340.996 19.8133 341.043 19.86C341.089 19.9067 341.113 19.9667 341.113 20.04V20.76C341.113 20.8333 341.089 20.8933 341.043 20.94C340.996 20.98 340.936 21 340.863 21H336.073ZM343.414 21C343.354 21 343.304 20.98 343.264 20.94C343.224 20.8933 343.204 20.84 343.204 20.78C343.204 20.74 343.221 20.6967 343.254 20.65L344.724 18.63C344.611 18.6567 344.471 18.67 344.304 18.67C343.864 18.6567 343.461 18.5467 343.094 18.34C342.734 18.1267 342.447 17.8467 342.234 17.5C342.021 17.1467 341.914 16.7567 341.914 16.33C341.914 15.91 342.017 15.5167 342.224 15.15C342.431 14.7767 342.737 14.4767 343.144 14.25C343.551 14.0167 344.041 13.9 344.614 13.9C345.194 13.9 345.691 14.01 346.104 14.23C346.517 14.4433 346.827 14.7333 347.034 15.1C347.247 15.46 347.354 15.8567 347.354 16.29C347.354 16.5633 347.311 16.82 347.224 17.06C347.137 17.3 347.037 17.51 346.924 17.69C346.817 17.8633 346.664 18.09 346.464 18.37L344.714 20.8C344.661 20.8667 344.611 20.9167 344.564 20.95C344.517 20.9833 344.454 21 344.374 21H343.414ZM344.624 17.59C344.991 17.59 345.297 17.4767 345.544 17.25C345.791 17.0167 345.914 16.71 345.914 16.33C345.914 15.9433 345.791 15.6367 345.544 15.41C345.297 15.1767 344.991 15.06 344.624 15.06C344.264 15.06 343.961 15.1767 343.714 15.41C343.467 15.6367 343.344 15.9433 343.344 16.33C343.344 16.71 343.464 17.0167 343.704 17.25C343.951 17.4767 344.257 17.59 344.624 17.59ZM349.686 17.52C349.246 17.52 348.892 17.4033 348.626 17.17C348.366 16.9367 348.222 16.62 348.196 16.22C348.189 16.1067 348.186 15.9567 348.186 15.77C348.186 15.57 348.189 15.41 348.196 15.29C348.222 14.8767 348.362 14.55 348.616 14.31C348.869 14.07 349.226 13.95 349.686 13.95C350.146 13.95 350.502 14.07 350.756 14.31C351.016 14.55 351.159 14.8767 351.186 15.29C351.199 15.53 351.206 15.69 351.206 15.77C351.206 15.8433 351.199 15.9933 351.186 16.22C351.159 16.62 351.012 16.9367 350.746 17.17C350.486 17.4033 350.132 17.52 349.686 17.52ZM348.876 21C348.809 21 348.756 20.9833 348.716 20.95C348.676 20.91 348.656 20.86 348.656 20.8C348.656 20.76 348.669 20.7233 348.696 20.69L353.626 14.19C353.679 14.1233 353.729 14.0767 353.776 14.05C353.822 14.0167 353.889 14 353.976 14H354.506C354.572 14 354.622 14.02 354.656 14.06C354.696 14.0933 354.716 14.14 354.716 14.2C354.716 14.24 354.702 14.2767 354.676 14.31L349.746 20.81C349.692 20.8767 349.642 20.9267 349.596 20.96C349.549 20.9867 349.486 21 349.406 21H348.876ZM349.686 16.77C349.879 16.77 350.019 16.7133 350.106 16.6C350.199 16.4867 350.256 16.3433 350.276 16.17C350.289 15.9433 350.296 15.8033 350.296 15.75C350.296 15.6767 350.289 15.54 350.276 15.34C350.262 15.1667 350.209 15.0233 350.116 14.91C350.022 14.79 349.879 14.73 349.686 14.73C349.499 14.73 349.359 14.79 349.266 14.91C349.172 15.0233 349.119 15.1667 349.106 15.34C349.099 15.44 349.096 15.5767 349.096 15.75C349.096 15.9167 349.099 16.0567 349.106 16.17C349.119 16.3367 349.169 16.48 349.256 16.6C349.349 16.7133 349.492 16.77 349.686 16.77ZM353.686 21.06C353.246 21.06 352.892 20.94 352.626 20.7C352.366 20.4533 352.222 20.1267 352.196 19.72C352.189 19.6067 352.186 19.4567 352.186 19.27C352.186 19.0767 352.189 18.92 352.196 18.8C352.222 18.3867 352.362 18.06 352.616 17.82C352.869 17.58 353.226 17.46 353.686 17.46C354.152 17.46 354.512 17.58 354.766 17.82C355.019 18.06 355.159 18.3867 355.186 18.8C355.199 19.04 355.206 19.1967 355.206 19.27C355.206 19.3433 355.199 19.4933 355.186 19.72C355.159 20.1267 355.012 20.4533 354.746 20.7C354.486 20.94 354.132 21.06 353.686 21.06ZM353.686 20.28C353.886 20.28 354.029 20.2233 354.116 20.11C354.209 19.99 354.262 19.8467 354.276 19.68C354.289 19.4533 354.296 19.31 354.296 19.25C354.296 19.1833 354.289 19.05 354.276 18.85C354.262 18.6767 354.209 18.5333 354.116 18.42C354.022 18.3 353.879 18.24 353.686 18.24C353.499 18.24 353.359 18.3 353.266 18.42C353.172 18.5333 353.119 18.6767 353.106 18.85C353.099 18.95 353.096 19.0833 353.096 19.25C353.096 19.4233 353.099 19.5667 353.106 19.68C353.119 19.8467 353.169 19.99 353.256 20.11C353.349 20.2233 353.492 20.28 353.686 20.28Z" fill="white"/>
<path d="M442.424 21C442.358 21 442.301 20.9767 442.254 20.93C442.208 20.8833 442.184 20.8267 442.184 20.76V15.6L440.674 16.76C440.634 16.7933 440.584 16.81 440.524 16.81C440.444 16.81 440.381 16.7767 440.334 16.71L439.904 16.15C439.871 16.1033 439.854 16.0567 439.854 16.01C439.854 15.93 439.891 15.8633 439.964 15.81L442.204 14.07C442.278 14.0233 442.361 14 442.454 14H443.354C443.421 14 443.478 14.0233 443.524 14.07C443.571 14.1167 443.594 14.1733 443.594 14.24V20.76C443.594 20.8267 443.571 20.8833 443.524 20.93C443.478 20.9767 443.421 21 443.354 21H442.424ZM444.983 21C444.916 21 444.86 20.9767 444.813 20.93C444.766 20.8833 444.743 20.8267 444.743 20.76V20.24C444.743 20.0533 444.826 19.8967 444.993 19.77L446.553 18.22C447.026 17.8467 447.39 17.5433 447.643 17.31C447.903 17.07 448.096 16.85 448.223 16.65C448.35 16.45 448.413 16.2533 448.413 16.06C448.413 15.7467 448.33 15.5 448.163 15.32C447.996 15.14 447.743 15.05 447.403 15.05C447.07 15.05 446.806 15.15 446.613 15.35C446.426 15.5433 446.31 15.7967 446.263 16.11C446.243 16.19 446.203 16.25 446.143 16.29C446.09 16.3233 446.03 16.34 445.963 16.34H445.063C445.003 16.34 444.953 16.32 444.913 16.28C444.873 16.24 444.853 16.19 444.853 16.13C444.866 15.7367 444.973 15.37 445.173 15.03C445.38 14.6833 445.673 14.4067 446.053 14.2C446.433 13.9867 446.88 13.88 447.393 13.88C447.926 13.88 448.38 13.9733 448.753 14.16C449.126 14.34 449.406 14.59 449.593 14.91C449.78 15.23 449.873 15.5933 449.873 16C449.873 16.4467 449.746 16.8533 449.493 17.22C449.246 17.58 448.86 17.9667 448.333 18.38L446.943 19.79H449.773C449.846 19.79 449.906 19.8133 449.953 19.86C450 19.9067 450.023 19.9667 450.023 20.04V20.76C450.023 20.8333 450 20.8933 449.953 20.94C449.906 20.98 449.846 21 449.773 21H444.983ZM452.414 17.52C451.974 17.52 451.621 17.4033 451.354 17.17C451.094 16.9367 450.951 16.62 450.924 16.22C450.917 16.1067 450.914 15.9567 450.914 15.77C450.914 15.57 450.917 15.41 450.924 15.29C450.951 14.8767 451.091 14.55 451.344 14.31C451.597 14.07 451.954 13.95 452.414 13.95C452.874 13.95 453.231 14.07 453.484 14.31C453.744 14.55 453.887 14.8767 453.914 15.29C453.927 15.53 453.934 15.69 453.934 15.77C453.934 15.8433 453.927 15.9933 453.914 16.22C453.887 16.62 453.741 16.9367 453.474 17.17C453.214 17.4033 452.861 17.52 452.414 17.52ZM451.604 21C451.537 21 451.484 20.9833 451.444 20.95C451.404 20.91 451.384 20.86 451.384 20.8C451.384 20.76 451.397 20.7233 451.424 20.69L456.354 14.19C456.407 14.1233 456.457 14.0767 456.504 14.05C456.551 14.0167 456.617 14 456.704 14H457.234C457.301 14 457.351 14.02 457.384 14.06C457.424 14.0933 457.444 14.14 457.444 14.2C457.444 14.24 457.431 14.2767 457.404 14.31L452.474 20.81C452.421 20.8767 452.371 20.9267 452.324 20.96C452.277 20.9867 452.214 21 452.134 21H451.604ZM452.414 16.77C452.607 16.77 452.747 16.7133 452.834 16.6C452.927 16.4867 452.984 16.3433 453.004 16.17C453.017 15.9433 453.024 15.8033 453.024 15.75C453.024 15.6767 453.017 15.54 453.004 15.34C452.991 15.1667 452.937 15.0233 452.844 14.91C452.751 14.79 452.607 14.73 452.414 14.73C452.227 14.73 452.087 14.79 451.994 14.91C451.901 15.0233 451.847 15.1667 451.834 15.34C451.827 15.44 451.824 15.5767 451.824 15.75C451.824 15.9167 451.827 16.0567 451.834 16.17C451.847 16.3367 451.897 16.48 451.984 16.6C452.077 16.7133 452.221 16.77 452.414 16.77ZM456.414 21.06C455.974 21.06 455.621 20.94 455.354 20.7C455.094 20.4533 454.951 20.1267 454.924 19.72C454.917 19.6067 454.914 19.4567 454.914 19.27C454.914 19.0767 454.917 18.92 454.924 18.8C454.951 18.3867 455.091 18.06 455.344 17.82C455.597 17.58 455.954 17.46 456.414 17.46C456.881 17.46 457.241 17.58 457.494 17.82C457.747 18.06 457.887 18.3867 457.914 18.8C457.927 19.04 457.934 19.1967 457.934 19.27C457.934 19.3433 457.927 19.4933 457.914 19.72C457.887 20.1267 457.741 20.4533 457.474 20.7C457.214 20.94 456.861 21.06 456.414 21.06ZM456.414 20.28C456.614 20.28 456.757 20.2233 456.844 20.11C456.937 19.99 456.991 19.8467 457.004 19.68C457.017 19.4533 457.024 19.31 457.024 19.25C457.024 19.1833 457.017 19.05 457.004 18.85C456.991 18.6767 456.937 18.5333 456.844 18.42C456.751 18.3 456.607 18.24 456.414 18.24C456.227 18.24 456.087 18.3 455.994 18.42C455.901 18.5333 455.847 18.6767 455.834 18.85C455.827 18.95 455.824 19.0833 455.824 19.25C455.824 19.4233 455.827 19.5667 455.834 19.68C455.847 19.8467 455.897 19.99 455.984 20.11C456.077 20.2233 456.221 20.28 456.414 20.28Z" fill="white"/>
</svg>
