<svg width="40" height="40" viewBox="0 0 40 40" fill="none" xmlns="http://www.w3.org/2000/svg">
<path d="M29.5998 12.7201L26.2499 11.7201C26.0182 10.9114 25.6997 10.1302 25.2999 9.39011L26.9399 6.32012C27.0014 6.20424 27.0239 6.07161 27.0041 5.9419C26.9843 5.8122 26.9232 5.69235 26.8299 5.60012L24.4399 3.20014C24.3477 3.10681 24.2278 3.0457 24.0981 3.02588C23.9684 3.00607 23.8358 3.0286 23.7199 3.09014L20.6699 4.72013C19.9225 4.30079 19.131 3.96542 18.3099 3.72013L17.3099 0.410151C17.2676 0.288168 17.1877 0.182751 17.0817 0.109074C16.9757 0.0353976 16.849 -0.00273923 16.7199 0.000153168H13.3399C13.2101 0.000757739 13.0838 0.0427875 12.9795 0.120126C12.8752 0.197464 12.7983 0.306075 12.7599 0.430151L11.7599 3.73013C10.932 3.97411 10.1337 4.30951 9.37995 4.73013L6.37997 3.11014C6.26409 3.0486 6.13145 3.02607 6.00175 3.04588C5.87205 3.0657 5.75219 3.12681 5.65997 3.22014L3.22998 5.59013C3.13665 5.68235 3.07555 5.8022 3.05573 5.9319C3.03591 6.06161 3.05845 6.19424 3.11998 6.31012L4.73998 9.31011C4.32003 10.0607 3.98465 10.8556 3.73998 11.6801L0.429998 12.6801C0.305921 12.7184 0.197311 12.7953 0.119973 12.8996C0.0426343 13.004 0.000604571 13.1302 0 13.2601V16.6401C0.000604571 16.7699 0.0426343 16.8962 0.119973 17.0005C0.197311 17.1048 0.305921 17.1817 0.429998 17.2201L3.75998 18.2201C4.00733 19.0309 4.34265 19.8122 4.75998 20.55L3.11998 23.69C3.05845 23.8059 3.03591 23.9385 3.05573 24.0683C3.07555 24.198 3.13665 24.3178 3.22998 24.41L5.61997 26.8C5.71219 26.8933 5.83205 26.9545 5.96175 26.9743C6.09145 26.9941 6.22409 26.9716 6.33997 26.91L9.42995 25.26C10.1609 25.6544 10.932 25.9696 11.7299 26.2L12.7299 29.57C12.7683 29.6941 12.8452 29.8027 12.9495 29.88C13.0538 29.9574 13.1801 29.9994 13.3099 30H16.6899C16.8198 29.9994 16.946 29.9574 17.0504 29.88C17.1547 29.8027 17.2316 29.6941 17.2699 29.57L18.2699 26.19C19.0611 25.9584 19.8254 25.6433 20.5499 25.25L23.6599 26.91C23.7758 26.9716 23.9084 26.9941 24.0381 26.9743C24.1678 26.9545 24.2877 26.8933 24.3799 26.8L26.7699 24.41C26.8632 24.3178 26.9243 24.198 26.9441 24.0683C26.9639 23.9385 26.9414 23.8059 26.8799 23.69L25.2199 20.59C25.6172 19.8627 25.9357 19.0951 26.1699 18.3001L29.5399 17.3001C29.6639 17.2617 29.7725 17.1848 29.8499 17.0805C29.9272 16.9762 29.9692 16.8499 29.9698 16.7201V13.3101C29.9757 13.1857 29.9435 13.0626 29.8773 12.9571C29.8112 12.8516 29.7144 12.7689 29.5998 12.7201ZM15.0299 20.5C13.9421 20.5 12.8788 20.1775 11.9743 19.5731C11.0698 18.9688 10.3649 18.1098 9.94861 17.1048C9.53233 16.0998 9.42341 14.994 9.63563 13.9271C9.84785 12.8602 10.3717 11.8802 11.1409 11.111C11.91 10.3418 12.89 9.818 13.9569 9.60579C15.0238 9.39357 16.1297 9.50249 17.1347 9.91877C18.1397 10.335 18.9986 11.04 19.603 11.9445C20.2073 12.8489 20.5299 13.9123 20.5299 15.0001C20.5299 16.4588 19.9504 17.8577 18.919 18.8891C17.8875 19.9206 16.4886 20.5 15.0299 20.5Z" fill="#5E6366"/>
</svg>
