<svg width="20" height="24" viewBox="0 0 20 24" fill="none" xmlns="http://www.w3.org/2000/svg">
<path fill-rule="evenodd" clip-rule="evenodd" d="M2 24C2 24 0 24 0 22C0 20 2 14 10 14C18 14 20 20 20 22C20 24 18 24 18 24H2ZM10 12C11.5913 12 13.1174 11.3679 14.2426 10.2426C15.3679 9.11742 16 7.5913 16 6C16 4.4087 15.3679 2.88258 14.2426 1.75736C13.1174 0.632141 11.5913 0 10 0C8.4087 0 6.88258 0.632141 5.75736 1.75736C4.63214 2.88258 4 4.4087 4 6C4 7.5913 4.63214 9.11742 5.75736 10.2426C6.88258 11.3679 8.4087 12 10 12Z" fill="#625457"/>
</svg>
